<?xml version="1.0" encoding="utf-8"?>
<!-- Generator: Adobe Illustrator 15.0.0, SVG Export Plug-In . SVG Version: 6.00 Build 0)  -->
<!DOCTYPE svg PUBLIC "-//W3C//DTD SVG 1.1//EN" "http://www.w3.org/Graphics/SVG/1.1/DTD/svg11.dtd">
<svg version="1.1" id="Layer_1" xmlns="http://www.w3.org/2000/svg" xmlns:xlink="http://www.w3.org/1999/xlink" x="0px" y="0px"
	 width="161.102px" height="73.273px" viewBox="0 0 161.102 73.273" enable-background="new 0 0 161.102 73.273"
	 xml:space="preserve">
<g>
	<path fill="#FFFFFF" d="M16.523,7.641c-2.203,0-3.922,0.902-5.156,2.707s-1.852,4.293-1.852,7.465c0,6.594,2.508,9.891,7.523,9.891
		c1.516,0,2.984-0.211,4.406-0.633s2.852-0.93,4.289-1.523v7.828c-2.859,1.266-6.094,1.898-9.703,1.898
		c-5.172,0-9.137-1.5-11.895-4.5S0,23.438,0,17.766c0-3.547,0.668-6.664,2.004-9.352S5.262,3.66,7.77,2.215s5.457-2.168,8.848-2.168
		c3.703,0,7.242,0.805,10.617,2.414L24.398,9.75c-1.266-0.594-2.531-1.094-3.797-1.5S17.977,7.641,16.523,7.641z"/>
	<path fill="#FFFFFF" d="M62.758,17.625c0,5.766-1.415,10.148-4.242,13.148c-2.828,3-6.969,4.5-12.422,4.5
		c-5.375,0-9.496-1.508-12.363-4.523c-2.868-3.016-4.301-7.406-4.301-13.172c0-5.703,1.426-10.059,4.277-13.066
		C36.559,1.504,40.704,0,46.141,0c5.453,0,9.586,1.492,12.398,4.477S62.758,11.844,62.758,17.625z M39.18,17.625
		c0,6.625,2.305,9.938,6.914,9.938c2.344,0,4.082-0.805,5.215-2.414c1.133-1.609,1.699-4.117,1.699-7.523
		c0-3.422-0.574-5.949-1.723-7.582s-2.863-2.449-5.145-2.449C41.5,7.594,39.18,10.938,39.18,17.625z"/>
	<path fill="#FFFFFF" d="M68.039,34.805V0.539h9.258v26.789h13.195v7.477H68.039z"/>
	<path fill="#FFFFFF" d="M126.454,17.625c0,5.766-1.414,10.148-4.242,13.148s-6.969,4.5-12.422,4.5
		c-5.375,0-9.496-1.508-12.363-4.523s-4.301-7.406-4.301-13.172c0-5.703,1.426-10.059,4.277-13.066S104.399,0,109.837,0
		c5.453,0,9.586,1.492,12.398,4.477S126.454,11.844,126.454,17.625z M102.876,17.625c0,6.625,2.305,9.938,6.914,9.938
		c2.344,0,4.082-0.805,5.215-2.414s1.699-4.117,1.699-7.523c0-3.422-0.574-5.949-1.723-7.582s-2.863-2.449-5.145-2.449
		C105.196,7.594,102.876,10.938,102.876,17.625z"/>
	<path fill="#FFFFFF" d="M140.992,22.336v12.469h-9.258V0.539h11.227c9.313,0,13.969,3.375,13.969,10.125
		c0,3.969-1.938,7.039-5.813,9.211l9.984,14.93h-10.5l-7.266-12.469H140.992z M140.992,15.375h1.734c3.234,0,4.852-1.43,4.852-4.289
		c0-2.359-1.586-3.539-4.758-3.539h-1.828V15.375z"/>
	<path fill="#FFFFFF" d="M17.547,72.805L4.773,41.164H4.586c0.125,1.938,0.188,3.922,0.188,5.953v25.688H2.477V38.539H6.18
		L18.32,68.68h0.141l12.141-30.141h3.609v34.266h-2.414V46.836c0-1.813,0.094-3.688,0.281-5.625h-0.188L19.07,72.805H17.547z"/>
	<path fill="#FFFFFF" d="M62.752,60.711H48.831l-4.781,12.094h-2.648l13.781-34.406h1.523l13.5,34.406H67.51L62.752,60.711z
		 M49.698,58.555h12.258l-4.664-12.352c-0.391-0.969-0.859-2.313-1.406-4.031c-0.422,1.5-0.883,2.859-1.383,4.078L49.698,58.555z"/>
	<path fill="#FFFFFF" d="M82.906,72.805h-2.414V40.789H69.36v-2.25h24.679v2.25H82.906V72.805z"/>
	<path fill="#FFFFFF" d="M114.053,40.203c-4.297,0-7.68,1.375-10.148,4.125s-3.703,6.516-3.703,11.297
		c0,4.891,1.164,8.688,3.492,11.391s5.656,4.055,9.984,4.055c2.875,0,5.516-0.367,7.922-1.102v2.109
		c-2.266,0.797-5.094,1.195-8.484,1.195c-4.813,0-8.602-1.555-11.367-4.664S97.6,61.156,97.6,55.578c0-3.484,0.66-6.555,1.98-9.211
		s3.219-4.707,5.695-6.152s5.355-2.168,8.637-2.168c3.344,0,6.336,0.625,8.977,1.875l-0.961,2.156
		C119.428,40.828,116.803,40.203,114.053,40.203z"/>
	<path fill="#FFFFFF" d="M155.602,72.805h-2.414V55.953h-20.016v16.852h-2.391V38.539h2.391V53.75h20.016V38.539h2.414V72.805z"/>
</g>
</svg>
