<?xml version="1.0" encoding="utf-8"?>
<!-- Generator: Adobe Illustrator 15.0.0, SVG Export Plug-In . SVG Version: 6.00 Build 0)  -->
<!DOCTYPE svg PUBLIC "-//W3C//DTD SVG 1.1//EN" "http://www.w3.org/Graphics/SVG/1.1/DTD/svg11.dtd">
<svg version="1.1" id="Layer_1" xmlns="http://www.w3.org/2000/svg" xmlns:xlink="http://www.w3.org/1999/xlink" x="0px" y="0px"
	 width="96.832px" height="115.945px" viewBox="0 0 96.832 115.945" enable-background="new 0 0 96.832 115.945"
	 xml:space="preserve">
<g>
	<g>
		<g>
			<polygon fill="#D9A441" points="53.854,83.587 49.186,88.265 43.433,85.015 37.747,88.379 32.981,83.807 26.639,85.652 
				23.161,80.037 22.912,80.044 22.911,115.945 40.58,111.069 58.253,115.942 58.255,84.77 			"/>
			<polygon fill="#D9A441" points="78.662,65.166 78.457,71.768 72.042,73.341 70.197,79.685 63.596,79.614 60.309,85.177 
				60.31,103.561 66.223,113.808 79.087,100.751 96.832,96.139 78.88,65.049 			"/>
		</g>
		<path fill="#D9A441" d="M82.531,45.123l3.399-5.225l-4.124-4.672l1.99-5.906l-5.158-3.501l0.46-6.215l-5.865-2.109l-1.099-6.134
			l-6.205-0.585l-2.59-5.665l-6.155,0.978l-3.921-4.847l-5.719,2.479L42.542,0l-4.921,3.824L31.85,1.467l-3.817,4.927l-6.174-0.852
			l-2.474,5.726l-6.19,0.712l-0.97,6.155l-5.82,2.232l0.59,6.201l-5.086,3.608l2.116,5.861L0,40.799l3.506,5.152l-2.715,5.61
			L5.47,55.68l-1.237,6.107l5.556,2.825l0.321,6.226l6.086,1.356l1.86,5.947l6.229-0.199l3.279,5.301l5.986-1.743l4.495,4.315
			l5.363-3.177l5.43,3.063l4.401-4.41l6.021,1.617l3.17-5.367l6.23,0.07l1.736-5.986l6.055-1.481l0.193-6.231l5.49-2.939
			l-1.359-6.082l4.589-4.218L82.531,45.123z M52.537,78.673c-19.73,5.287-40.084-6.466-45.372-26.195
			C1.878,32.744,13.629,12.391,33.36,7.104C53.091,1.817,73.445,13.568,78.732,33.3C84.02,53.03,72.269,73.385,52.537,78.673z"/>
		<g>
			<g>
				<g>
					<g>
						<path fill="#D9A441" d="M71.537,36.975c0.002,0.288-0.002,0.58-0.031,0.873c-0.033,0.291-0.084,0.584-0.157,0.861
							c-0.035,0.142-0.076,0.279-0.122,0.413c-0.048,0.134-0.109,0.268-0.17,0.394c-0.492,1.006-1.311,1.5-1.977,1.758
							c-0.381,0.143-0.713,0.211-0.933,0.243c0.106,1.191,0.138,2.408,0.09,3.639c0.205-0.703,0.49-1.453,0.938-2.091
							c0.593-0.874,1.42-1.365,2.078-1.625c0.668-0.266,1.197-0.291,1.197-0.291s0.008,0.052,0.016,0.143
							c0.005,0.092,0.021,0.224,0.021,0.394c0.004,0.331,0.002,0.793-0.053,1.314c-0.068,0.522-0.155,1.103-0.354,1.659
							c-0.095,0.278-0.203,0.552-0.334,0.813c-0.137,0.259-0.293,0.499-0.467,0.716c-0.346,0.438-0.755,0.733-1.158,0.933
							c-0.398,0.198-0.799,0.302-1.149,0.354c-0.388,0.057-0.716,0.05-0.937,0.034c-0.151,1.154-0.375,2.307-0.675,3.439
							c0.093-0.156,0.188-0.317,0.285-0.477c0.144-0.22,0.308-0.438,0.474-0.646c0.166-0.206,0.344-0.404,0.543-0.585
							c0.399-0.357,0.81-0.614,1.223-0.794c0.408-0.18,0.813-0.28,1.17-0.337c0.713-0.109,1.236-0.016,1.236-0.016
							s-0.026,0.199-0.092,0.525c-0.07,0.324-0.162,0.78-0.342,1.275c-0.087,0.245-0.186,0.507-0.301,0.77
							c-0.122,0.258-0.258,0.521-0.405,0.772c-0.293,0.506-0.692,0.966-1.12,1.317c-0.886,0.694-1.828,0.796-2.537,0.739
							c-0.367-0.029-0.677-0.101-0.888-0.161c-0.386,1.056-0.83,2.089-1.345,3.079c0.447-0.469,0.967-0.925,1.535-1.262
							c0.469-0.263,0.938-0.415,1.373-0.503c0.438-0.085,0.853-0.097,1.209-0.072c0.721,0.053,1.209,0.258,1.209,0.258
							s-0.068,0.189-0.2,0.495c-0.067,0.15-0.147,0.334-0.249,0.532c-0.104,0.195-0.227,0.41-0.363,0.634
							c-0.537,0.897-1.402,1.896-2.406,2.383c-1.022,0.479-1.963,0.373-2.642,0.166c-0.332-0.105-0.604-0.23-0.796-0.332
							c-0.594,0.924-1.229,1.809-1.909,2.63c0.077-0.05,0.154-0.101,0.229-0.148c0.225-0.143,0.457-0.271,0.699-0.387
							c0.246-0.111,0.498-0.208,0.746-0.295c1.002-0.321,1.957-0.201,2.646,0.006c0.685,0.199,1.118,0.509,1.118,0.509
							s-0.096,0.177-0.301,0.439c-0.203,0.262-0.492,0.62-0.853,1.003c-0.731,0.747-1.774,1.558-2.877,1.804
							c-0.542,0.131-1.034,0.122-1.478,0.021c-0.443-0.095-0.824-0.257-1.133-0.437c-0.283-0.164-0.511-0.336-0.675-0.471
							c-0.769,0.753-1.563,1.446-2.362,2.076c0.049-0.018,0.098-0.04,0.149-0.056c0.248-0.086,0.511-0.156,0.771-0.212
							c0.258-0.065,0.521-0.112,0.785-0.135c0.529-0.043,1.025,0.022,1.459,0.136c0.43,0.107,0.809,0.271,1.12,0.447
							c0.627,0.35,0.979,0.745,0.979,0.745s-0.141,0.144-0.387,0.364c-0.24,0.23-0.621,0.499-1.056,0.793
							c-0.222,0.142-0.455,0.29-0.706,0.424c-0.258,0.131-0.525,0.248-0.804,0.355c-0.274,0.104-0.554,0.192-0.839,0.259
							c-0.284,0.063-0.574,0.087-0.854,0.091c-0.563,0.001-1.044-0.121-1.447-0.3c-0.408-0.188-0.744-0.438-1.006-0.681
							c-0.229-0.208-0.406-0.416-0.531-0.581c-0.059,0.032-0.113,0.068-0.17,0.103c-0.35,0.212-0.701,0.427-1.063,0.619
							c-0.089,0.048-0.18,0.096-0.268,0.146l-0.07,0.035l-0.014,0.009l-0.037,0.017l-0.031,0.017l-0.135,0.06
							c-0.09,0.038-0.176,0.078-0.262,0.117c-0.082,0.039-0.166,0.078-0.248,0.12c-0.607,0.301-1.178,0.635-1.705,0.977
							c1.082,0.167,2.021,0.379,2.806,0.577c0.872,0.217,1.549,0.432,2.009,0.584c0.229,0.075,0.402,0.139,0.525,0.182
							c0.123,0.045,0.185,0.066,0.185,0.066l-0.38,0.972c0,0-0.057-0.02-0.16-0.061c-0.111-0.044-0.281-0.104-0.502-0.178
							c-0.439-0.153-1.092-0.361-1.936-0.59c-0.838-0.226-1.875-0.464-3.072-0.645c-0.207-0.029-0.422-0.06-0.639-0.087
							c-0.178,0.133-0.352,0.268-0.516,0.396c-0.946,0.755-1.721,1.479-2.338,2.095c-0.617,0.618-1.079,1.126-1.383,1.478
							c-0.152,0.176-0.265,0.311-0.342,0.404c-0.074,0.089-0.111,0.133-0.111,0.133l-0.813-0.651c0,0,0.041-0.049,0.124-0.148
							c0.086-0.1,0.204-0.241,0.367-0.421c0.323-0.361,0.803-0.888,1.446-1.511c0.579-0.563,1.288-1.217,2.144-1.902
							c-0.629-0.031-1.29-0.036-1.969,0.009c-0.091,0.004-0.181,0.012-0.273,0.02c-0.096,0.01-0.19,0.019-0.287,0.029l-0.145,0.017
							l-0.03,0.004l-0.036,0.003l-0.023,0.001l-0.073,0.004c-0.103,0.001-0.206,0.007-0.306,0.009
							c-0.412,0.014-0.819,0.003-1.229-0.005c-0.063-0.002-0.131-0.006-0.197-0.004c-0.028,0.206-0.076,0.475-0.17,0.769
							c-0.104,0.341-0.271,0.725-0.532,1.093c-0.259,0.356-0.616,0.703-1.102,0.982c-0.245,0.137-0.51,0.26-0.786,0.349
							c-0.274,0.083-0.566,0.147-0.856,0.196c-0.288,0.043-0.583,0.076-0.871,0.093c-0.284,0.01-0.56-0.004-0.822-0.015
							c-0.524-0.037-0.988-0.079-1.312-0.159c-0.324-0.067-0.517-0.123-0.517-0.123s0.106-0.518,0.475-1.135
							c0.184-0.31,0.427-0.639,0.747-0.948c0.322-0.313,0.717-0.619,1.195-0.846c0.242-0.113,0.491-0.204,0.744-0.275
							c0.256-0.083,0.52-0.152,0.775-0.201c0.053-0.014,0.109-0.02,0.162-0.027c-1.008-0.146-2.046-0.351-3.09-0.616
							c-0.072,0.197-0.183,0.46-0.345,0.743c-0.183,0.312-0.424,0.64-0.763,0.944c-0.337,0.309-0.759,0.562-1.293,0.72
							c-1.077,0.339-2.382,0.157-3.393-0.123c-0.502-0.151-0.932-0.318-1.238-0.442c-0.311-0.126-0.482-0.229-0.482-0.229
							s0.221-0.484,0.713-1c0.495-0.524,1.261-1.105,2.292-1.328c0.256-0.048,0.523-0.092,0.791-0.118
							c0.266-0.021,0.536-0.025,0.798-0.015c0.092,0.005,0.183,0.011,0.275,0.016c-1.003-0.372-1.993-0.82-2.967-1.324
							c-0.118,0.185-0.29,0.429-0.526,0.688c-0.482,0.518-1.243,1.08-2.368,1.177c-1.111,0.08-2.36-0.353-3.275-0.861
							c-0.23-0.124-0.446-0.248-0.631-0.365c-0.188-0.122-0.35-0.24-0.483-0.337c-0.267-0.198-0.419-0.328-0.419-0.328
							s0.317-0.422,0.915-0.827c0.297-0.199,0.663-0.398,1.086-0.544c0.418-0.141,0.901-0.243,1.436-0.249
							c0.666,0.006,1.344,0.142,1.963,0.324c-0.938-0.602-1.841-1.273-2.703-1.994c-0.153,0.157-0.382,0.373-0.689,0.583
							c-0.587,0.403-1.449,0.787-2.563,0.629c-0.551-0.092-1.124-0.291-1.63-0.583c-0.255-0.146-0.504-0.304-0.742-0.464
							c-0.226-0.173-0.445-0.349-0.644-0.519c-0.398-0.34-0.709-0.688-0.931-0.934c-0.22-0.25-0.343-0.409-0.343-0.409
							s0.406-0.344,1.08-0.605c0.337-0.13,0.737-0.243,1.179-0.293c0.449-0.052,0.929-0.031,1.459,0.075
							c0.26,0.059,0.516,0.141,0.76,0.236c0.25,0.097,0.5,0.203,0.732,0.321c0.164,0.089,0.328,0.181,0.485,0.27
							c-0.825-0.832-1.596-1.717-2.303-2.641c-0.184,0.123-0.467,0.292-0.827,0.437c-0.332,0.133-0.728,0.241-1.177,0.271
							c-0.445,0.028-0.948-0.021-1.464-0.23c-0.262-0.101-0.518-0.229-0.768-0.386c-0.242-0.161-0.472-0.345-0.694-0.537
							c-0.45-0.384-0.814-0.842-1.136-1.26c-0.309-0.425-0.539-0.825-0.703-1.113c-0.082-0.146-0.135-0.269-0.176-0.351
							c-0.039-0.083-0.06-0.133-0.06-0.133s0.47-0.24,1.183-0.347c0.702-0.104,1.661-0.092,2.611,0.369
							c0.709,0.327,1.329,0.835,1.859,1.341c-0.654-1.042-1.236-2.109-1.738-3.197c-0.207,0.082-0.532,0.189-0.935,0.258
							c-0.704,0.108-1.658,0.09-2.589-0.535c-0.116-0.078-0.232-0.163-0.342-0.255c-0.106-0.094-0.212-0.192-0.313-0.296
							c-0.201-0.205-0.395-0.435-0.57-0.667c-0.166-0.241-0.318-0.491-0.46-0.741c-0.14-0.25-0.267-0.499-0.365-0.742
							c-0.202-0.481-0.36-0.918-0.444-1.237c-0.086-0.319-0.124-0.521-0.124-0.521s0.514-0.132,1.229-0.083
							c0.361,0.025,0.769,0.095,1.19,0.241c0.42,0.145,0.866,0.361,1.281,0.689c0.413,0.331,0.799,0.725,1.107,1.145
							c0.163,0.207,0.318,0.415,0.453,0.624c0.013,0.021,0.021,0.041,0.035,0.058c-0.437-1.212-0.787-2.425-1.043-3.613
							c-0.218,0.036-0.573,0.074-1,0.05c-0.721-0.04-1.625-0.275-2.414-1.084c-0.764-0.813-1.223-2.051-1.408-3.087
							c-0.108-0.513-0.14-0.976-0.159-1.306c-0.02-0.331-0.018-0.531-0.018-0.531s0.528-0.021,1.222,0.188
							c0.345,0.102,0.731,0.258,1.114,0.494c0.38,0.231,0.752,0.544,1.1,0.95c0.171,0.209,0.321,0.428,0.456,0.657
							c0.139,0.229,0.265,0.468,0.375,0.705c0.136,0.305,0.264,0.612,0.373,0.908c-0.153-1.16-0.227-2.278-0.238-3.35
							c-0.216-0.004-0.589-0.03-1.026-0.147c-0.347-0.092-0.734-0.242-1.109-0.486c-0.37-0.242-0.732-0.582-1.036-1.057
							c-0.296-0.479-0.495-1.041-0.618-1.619c-0.107-0.574-0.165-1.165-0.147-1.688c0.003-0.264,0.016-0.51,0.031-0.734
							c0.02-0.22,0.049-0.416,0.071-0.58c0.053-0.328,0.097-0.527,0.097-0.527s0.521,0.09,1.156,0.431
							c0.642,0.341,1.369,0.92,1.876,1.862c0.432,0.831,0.643,1.807,0.754,2.646c0.003-0.064,0.008-0.13,0.011-0.192
							c0.022-0.366,0.063-0.722,0.092-1.066c0.038-0.349,0.088-0.687,0.127-1.017c0.048-0.326,0.104-0.639,0.151-0.94
							c0.086-0.478,0.182-0.926,0.283-1.347c-0.021-0.054-0.063-0.176-0.11-0.354c-0.066-0.242-0.168-0.593-0.247-0.999
							c-0.064-0.424-0.166-0.833-0.205-1.352c-0.037-0.51-0.019-1.104,0.166-1.749c0.183-0.644,0.532-1.263,0.98-1.734
							c0.445-0.479,0.961-0.792,1.422-0.946c0.113-0.04,0.221-0.081,0.327-0.103c0.104-0.023,0.208-0.041,0.302-0.058
							c0.093-0.013,0.183-0.026,0.26-0.031c0.083-0.002,0.156-0.003,0.224,0c0.267,0.008,0.412,0.029,0.412,0.029
							s-0.057,0.149-0.154,0.38c-0.021,0.058-0.05,0.116-0.077,0.185c-0.023,0.065-0.051,0.142-0.078,0.222
							c-0.022,0.076-0.053,0.152-0.082,0.236c-0.029,0.08-0.047,0.176-0.072,0.265c-0.108,0.354-0.166,0.744-0.229,1.137
							c-0.064,0.395-0.129,0.809-0.262,1.282c-0.139,0.469-0.335,0.961-0.587,1.436c-0.247,0.464-0.559,0.937-0.862,1.234
							c-0.284,0.304-0.541,0.533-0.743,0.693c-0.12,0.499-0.231,1.045-0.329,1.625c-0.029,0.182-0.055,0.366-0.086,0.555
							c0.047-0.13,0.096-0.262,0.152-0.397c0.096-0.224,0.215-0.453,0.345-0.667c0.251-0.441,0.6-0.844,0.998-1.145
							c0.81-0.602,1.73-0.688,2.43-0.639c0.348,0.047,0.644,0.117,0.854,0.176c0.211,0.057,0.337,0.099,0.337,0.099
							c-0.014,0.042-0.167,0.563-0.465,1.187c-0.154,0.343-0.366,0.723-0.604,1.098c-0.257,0.368-0.544,0.734-0.913,1.044
							c-0.372,0.309-0.755,0.537-1.159,0.695c-0.396,0.164-0.791,0.262-1.145,0.316c-0.447,0.073-0.822,0.073-1.033,0.065
							c-0.019,0.199-0.034,0.402-0.045,0.607c-0.012,0.36-0.033,0.73-0.04,1.106c-0.01,0.531,0.005,1.075,0.029,1.636
							c0.131-0.792,0.442-1.663,0.994-2.293c0.686-0.757,1.547-1.025,2.258-1.115c0.701-0.093,1.229-0.017,1.229-0.017
							s-0.011,0.143-0.052,0.376c-0.03,0.229-0.081,0.556-0.177,0.923c-0.163,0.736-0.477,1.651-1.051,2.404
							c-0.15,0.188-0.312,0.357-0.482,0.513c-0.166,0.148-0.337,0.282-0.515,0.403c-0.356,0.237-0.725,0.413-1.059,0.537
							c-0.406,0.155-0.761,0.231-0.974,0.268c0.047,0.401,0.106,0.806,0.176,1.217c0.133,0.806,0.316,1.628,0.538,2.455
							c-0.01-0.278-0.006-0.567,0.035-0.859c0.033-0.254,0.071-0.505,0.15-0.749c0.077-0.245,0.171-0.48,0.289-0.703
							c0.234-0.438,0.576-0.776,0.917-1.031c0.342-0.257,0.705-0.427,1.036-0.55c0.663-0.244,1.195-0.284,1.195-0.284
							s0.003,0.036,0.011,0.102c0.005,0.063,0.021,0.157,0.03,0.273c0.023,0.233,0.025,0.568,0.031,0.942
							c-0.004,0.188-0.012,0.391-0.033,0.604c-0.016,0.208-0.033,0.425-0.071,0.646c-0.088,0.443-0.187,0.896-0.403,1.332
							c-0.403,0.86-1.096,1.479-1.687,1.866c-0.342,0.225-0.656,0.374-0.859,0.46c0.087,0.238,0.174,0.478,0.265,0.719
							c0.337,0.863,0.724,1.725,1.167,2.576c-0.053-0.228-0.102-0.459-0.123-0.7c-0.04-0.512-0.033-1.024,0.119-1.517
							c0.279-0.965,0.971-1.587,1.563-1.969c0.594-0.381,1.102-0.535,1.102-0.535s0.054,0.132,0.121,0.354
							c0.061,0.229,0.159,0.545,0.232,0.915c0.065,0.376,0.159,0.79,0.168,1.243c0.033,0.444,0.003,0.919-0.101,1.385
							c-0.099,0.462-0.288,0.885-0.514,1.253c-0.216,0.367-0.474,0.682-0.722,0.935c-0.268,0.28-0.53,0.486-0.71,0.616
							c0.12,0.191,0.243,0.384,0.37,0.573c0.508,0.758,1.064,1.502,1.656,2.214c-0.279-0.623-0.471-1.335-0.43-2.021
							c0.074-1.013,0.595-1.757,1.098-2.267c0.498-0.504,0.959-0.765,0.959-0.765s0.077,0.117,0.188,0.326
							c0.121,0.202,0.278,0.487,0.43,0.837c0.323,0.682,0.64,1.594,0.649,2.54c-0.002,0.242-0.024,0.472-0.065,0.697
							c-0.043,0.223-0.093,0.437-0.159,0.64c-0.134,0.407-0.316,0.769-0.504,1.072c-0.192,0.319-0.389,0.564-0.533,0.73
							c0.186,0.188,0.372,0.367,0.563,0.545c0.619,0.578,1.265,1.135,1.93,1.647c-0.084-0.114-0.163-0.239-0.239-0.362
							c-0.272-0.425-0.464-0.923-0.547-1.411c-0.156-1.001,0.195-1.854,0.563-2.448c0.379-0.604,0.769-0.958,0.769-0.958
							s0.099,0.101,0.262,0.27c0.163,0.17,0.367,0.427,0.603,0.725c0.232,0.294,0.466,0.66,0.686,1.044
							c0.108,0.194,0.204,0.407,0.292,0.625c0.088,0.213,0.162,0.437,0.215,0.671c0.1,0.471,0.116,0.924,0.076,1.351
							c-0.042,0.426-0.141,0.822-0.256,1.158c-0.111,0.333-0.24,0.607-0.342,0.802c0.251,0.156,0.503,0.311,0.761,0.459
							c0.672,0.39,1.357,0.751,2.048,1.085c-0.078-0.069-0.155-0.14-0.229-0.213c-0.348-0.378-0.649-0.81-0.839-1.271
							c-0.194-0.455-0.237-0.938-0.22-1.358c0.021-0.43,0.115-0.818,0.233-1.151c0.114-0.333,0.25-0.606,0.354-0.8
							c0.108-0.192,0.182-0.305,0.182-0.305s0.029,0.021,0.087,0.056c0.053,0.034,0.134,0.083,0.231,0.154
							c0.098,0.063,0.212,0.146,0.338,0.245c0.063,0.05,0.127,0.102,0.194,0.157c0.072,0.054,0.146,0.108,0.218,0.169
							c0.295,0.233,0.608,0.536,0.901,0.877c0.299,0.327,0.573,0.714,0.774,1.154c0.409,0.854,0.452,1.771,0.375,2.483
							c-0.038,0.333-0.1,0.616-0.156,0.824c0.254,0.092,0.51,0.18,0.764,0.261c0.736,0.237,1.476,0.438,2.21,0.606
							c-0.49-0.302-0.947-0.685-1.271-1.151c-0.564-0.853-0.614-1.752-0.533-2.453c0.084-0.706,0.286-1.195,0.286-1.195
							s0.132,0.057,0.35,0.133c0.221,0.087,0.523,0.213,0.854,0.396c0.673,0.341,1.484,0.861,2.074,1.604
							c0.146,0.188,0.27,0.391,0.376,0.597c0.107,0.194,0.194,0.395,0.268,0.596c0.146,0.4,0.228,0.796,0.267,1.152
							c0.039,0.312,0.041,0.587,0.034,0.799c0.118,0.018,0.235,0.032,0.354,0.046l0.161,0.021l0.073,0.009
							c0.003-0.001,0.006,0.003,0.005-0.001l0.021,0.003l0.039,0.002c0.109,0.007,0.215,0.016,0.322,0.021
							c0.213,0.021,0.425,0.031,0.638,0.047c0.106,0.011,0.209,0.016,0.313,0.023l0.158,0.01l0.019,0.003l0.034-0.003l0.082,0.005
							c0.205,0,0.409,0.005,0.614,0.005c0.41,0.007,0.804,0.012,1.185-0.007c0.097,0,0.193-0.006,0.285-0.011l0.069-0.002
							l0.011-0.001c0.002-0.001,0.005-0.002,0.005-0.002l0.036-0.006l0.146-0.016c0.095-0.011,0.19-0.021,0.287-0.032
							c0.103-0.006,0.199-0.019,0.299-0.023c1.149-0.092,2.214-0.052,3.192,0.042c0.801-0.57,1.707-1.139,2.745-1.633
							c0.091-0.046,0.183-0.084,0.271-0.129c0.093-0.039,0.18-0.078,0.269-0.115l0.134-0.061l0.035-0.015
							c-0.002,0.001,0,0,0.006-0.001l0.006-0.004l0.063-0.032c0.085-0.043,0.169-0.085,0.252-0.134
							c0.34-0.175,0.682-0.377,1.027-0.586c0.179-0.102,0.356-0.211,0.533-0.313l0.067-0.044l0.032-0.017l0.012-0.011l0.135-0.088
							c0.084-0.061,0.17-0.115,0.258-0.177c0.176-0.12,0.354-0.236,0.528-0.359c0.093-0.061,0.181-0.12,0.271-0.18l0.031-0.021
							l0.019-0.014c0,0.004,0,0,0.006-0.002l0.06-0.043l0.127-0.101c0.095-0.069,0.19-0.144,0.283-0.216
							c-0.111-0.181-0.248-0.42-0.371-0.71c-0.142-0.328-0.27-0.711-0.343-1.131c-0.038-0.211-0.063-0.427-0.069-0.649
							c-0.01-0.23,0-0.469,0.029-0.704c0.141-0.938,0.583-1.795,0.995-2.428c0.197-0.325,0.394-0.585,0.539-0.769
							c0.151-0.178,0.237-0.291,0.237-0.291s0.423,0.321,0.847,0.892c0.422,0.566,0.828,1.372,0.765,2.393
							c-0.043,0.565-0.25,1.127-0.524,1.633c0.554-0.515,1.096-1.059,1.61-1.631c0.183-0.198,0.359-0.401,0.532-0.607
							c-0.151-0.152-0.35-0.366-0.546-0.636c-0.426-0.578-0.846-1.395-0.915-2.339c-0.05-0.482-0.008-0.953,0.093-1.389
							c0.082-0.439,0.198-0.857,0.336-1.209c0.037-0.089,0.069-0.173,0.104-0.254c0.03-0.083,0.063-0.161,0.091-0.234
							c0.063-0.147,0.118-0.278,0.17-0.382c0.053-0.11,0.094-0.191,0.124-0.249c0.031-0.06,0.048-0.092,0.048-0.092
							s0.12,0.061,0.307,0.173c0.188,0.115,0.445,0.284,0.709,0.517c0.268,0.229,0.544,0.52,0.775,0.881
							c0.229,0.355,0.434,0.795,0.493,1.285c0.062,0.495,0.017,1.02-0.097,1.521c-0.026,0.101-0.057,0.199-0.09,0.299
							c0.433-0.636,0.844-1.291,1.23-1.964c0.149-0.259,0.29-0.518,0.432-0.777c-0.188-0.116-0.437-0.29-0.699-0.522
							c-0.27-0.233-0.553-0.527-0.801-0.876s-0.457-0.751-0.607-1.208c-0.072-0.229-0.119-0.46-0.148-0.688
							c-0.033-0.231-0.058-0.464-0.063-0.688c0-0.441,0.021-0.877,0.074-1.247c0.053-0.375,0.102-0.699,0.158-0.928
							c0.06-0.229,0.09-0.364,0.09-0.364s0.52,0.111,1.146,0.445c0.616,0.33,1.35,0.895,1.715,1.839
							c0.17,0.465,0.254,0.992,0.231,1.495c-0.005,0.146-0.017,0.294-0.028,0.435c0.318-0.776,0.602-1.582,0.848-2.392
							c0.076-0.25,0.147-0.5,0.215-0.754c-0.209-0.07-0.502-0.187-0.828-0.366c-0.311-0.17-0.65-0.393-0.973-0.677
							c-0.156-0.145-0.308-0.304-0.453-0.477c-0.148-0.174-0.287-0.361-0.404-0.57c-0.469-0.823-0.65-1.771-0.712-2.523
							c-0.044-0.378-0.05-0.704-0.048-0.938c-0.006-0.237,0.004-0.378,0.004-0.378s0.527-0.004,1.212,0.184
							c0.688,0.188,1.511,0.574,2.084,1.413c0.378,0.575,0.569,1.287,0.639,1.966c0.157-0.912,0.267-1.834,0.326-2.744
							c0.015-0.229,0.026-0.456,0.034-0.682c-0.223-0.021-0.547-0.07-0.926-0.181c-0.34-0.095-0.719-0.236-1.09-0.447
							c-0.377-0.206-0.752-0.479-1.074-0.827c-0.316-0.354-0.584-0.748-0.776-1.149c-0.215-0.396-0.345-0.802-0.476-1.161
							c-0.118-0.356-0.192-0.682-0.254-0.908c-0.056-0.228-0.074-0.367-0.074-0.367s0.518-0.12,1.224-0.087
							c0.699,0.034,1.611,0.227,2.337,0.922c0.379,0.35,0.641,0.791,0.859,1.254c0.104,0.221,0.175,0.447,0.242,0.67
							c-0.043-0.959-0.135-1.9-0.275-2.816c-0.041-0.254-0.086-0.504-0.132-0.754c-0.218,0.027-0.562,0.056-0.972,0.031
							c-0.705-0.04-1.617-0.229-2.392-0.773c-0.407-0.269-0.721-0.61-1.019-0.951c-0.146-0.171-0.271-0.35-0.389-0.522
							c-0.123-0.174-0.231-0.347-0.328-0.507c-0.179-0.328-0.35-0.617-0.442-0.831c-0.054-0.107-0.087-0.195-0.114-0.254
							c-0.025-0.06-0.039-0.092-0.039-0.092s0.48-0.232,1.176-0.353c0.35-0.059,0.75-0.094,1.174-0.042
							c0.424,0.049,0.885,0.172,1.309,0.436c0.214,0.133,0.415,0.29,0.605,0.463c0.186,0.174,0.35,0.371,0.5,0.575
							c0.185,0.23,0.33,0.48,0.463,0.727c-0.221-0.827-0.476-1.631-0.76-2.396c-0.146-0.392-0.299-0.771-0.457-1.144
							c-0.203,0.076-0.547,0.188-0.979,0.257c-0.352,0.061-0.758,0.092-1.186,0.063c-0.211-0.017-0.43-0.045-0.647-0.092
							c-0.224-0.05-0.451-0.113-0.675-0.203c-0.872-0.364-1.602-1-2.111-1.558c-0.268-0.271-0.477-0.525-0.613-0.71
							c-0.152-0.183-0.231-0.3-0.231-0.3s0.415-0.33,1.071-0.601c0.656-0.277,1.541-0.477,2.514-0.164
							c0.792,0.271,1.494,0.869,2.006,1.488c-0.258-0.495-0.52-0.975-0.792-1.43c-0.194-0.322-0.397-0.633-0.588-0.938
							c-0.11-0.173-0.226-0.343-0.343-0.505c-0.182,0.113-0.504,0.3-0.928,0.46c-0.336,0.13-0.728,0.241-1.152,0.299
							c-0.426,0.063-0.873,0.057-1.352-0.023c-0.473-0.083-0.904-0.256-1.311-0.447c-0.395-0.205-0.768-0.43-1.072-0.647
							c-0.57-0.392-0.963-0.767-0.996-0.794c0,0,0.09-0.102,0.242-0.254c0.152-0.156,0.375-0.365,0.654-0.579
							c0.576-0.394,1.416-0.777,2.422-0.662c0.494,0.063,0.996,0.234,1.436,0.491c0.223,0.12,0.438,0.26,0.633,0.404
							c0.117,0.091,0.226,0.181,0.332,0.27c-0.117-0.148-0.238-0.294-0.353-0.438c-0.376-0.453-0.743-0.87-1.099-1.242
							c-0.254-0.036-0.59-0.107-0.988-0.229c-0.415-0.107-0.922-0.36-1.366-0.64c-0.452-0.283-0.872-0.611-1.226-0.949
							c-0.354-0.344-0.617-0.67-0.867-0.979c-0.247-0.311-0.5-0.617-0.77-0.868c-0.063-0.066-0.127-0.141-0.191-0.193
							c-0.068-0.059-0.131-0.111-0.191-0.164c-0.064-0.057-0.123-0.107-0.176-0.153c-0.061-0.044-0.109-0.083-0.161-0.12
							c-0.198-0.149-0.319-0.252-0.319-0.252s0.112-0.092,0.34-0.231c0.056-0.035,0.121-0.07,0.195-0.112
							c0.068-0.034,0.151-0.064,0.238-0.102c0.088-0.033,0.186-0.069,0.291-0.104c0.104-0.035,0.214-0.053,0.335-0.074
							c0.476-0.096,1.078-0.084,1.703,0.109c0.624,0.186,1.235,0.547,1.718,1.012c0.479,0.468,0.793,0.974,1.018,1.433
							c0.228,0.467,0.344,0.873,0.496,1.272c0.139,0.392,0.225,0.744,0.287,0.988c0.047,0.18,0.073,0.306,0.082,0.362
							c0.299,0.313,0.605,0.653,0.916,1.023c0.196,0.238,0.401,0.48,0.603,0.74c0.2,0.266,0.411,0.533,0.618,0.814
							c0.199,0.284,0.412,0.572,0.617,0.879c0.031,0.053,0.067,0.105,0.103,0.161c-0.321-0.782-0.628-1.731-0.667-2.668
							c-0.033-1.069,0.306-1.936,0.691-2.551c0.379-0.612,0.785-0.951,0.785-0.951s0.141,0.15,0.346,0.409
							c0.104,0.131,0.228,0.286,0.354,0.466c0.125,0.188,0.259,0.396,0.394,0.621c0.276,0.445,0.523,0.985,0.718,1.537
							c0.184,0.563,0.293,1.148,0.276,1.709c-0.027,0.563-0.17,1.039-0.371,1.437s-0.465,0.723-0.719,0.975
							c-0.32,0.32-0.63,0.531-0.812,0.642c0.522,0.934,1.017,1.938,1.464,3.021c-0.055-0.311-0.096-0.642-0.129-0.975
							c-0.023-0.261-0.034-0.531-0.023-0.799c-0.003-0.267,0.021-0.529,0.063-0.796c0.097-0.526,0.265-0.982,0.477-1.375
							c0.215-0.396,0.471-0.725,0.719-0.983c0.496-0.525,0.963-0.771,0.963-0.771s0.104,0.172,0.25,0.468
							c0.149,0.297,0.353,0.714,0.52,1.211c0.355,0.989,0.577,2.292,0.321,3.377c-0.276,1.094-0.943,1.752-1.548,2.146
							c-0.356,0.234-0.687,0.38-0.892,0.457c0.372,1.156,0.677,2.383,0.904,3.65c0.003-0.021,0.001-0.042,0-0.067
							c0.015-0.249,0.043-0.506,0.08-0.767c0.058-0.518,0.194-1.052,0.387-1.544c0.194-0.491,0.474-0.903,0.767-1.239
							c0.291-0.338,0.612-0.602,0.908-0.803c0.596-0.4,1.106-0.543,1.106-0.543s0.063,0.192,0.149,0.514
							c0.09,0.316,0.172,0.774,0.236,1.293C71.52,36.41,71.531,36.689,71.537,36.975"/>
					</g>
				</g>
			</g>
		</g>
	</g>
	<g>
		<path fill="#D9A441" d="M33.426,34.922c-0.294,0.297-0.614,0.492-0.963,0.585c-0.276,0.073-0.55,0.085-0.819,0.034
			c-0.272-0.055-0.522-0.151-0.754-0.289c-0.233-0.141-0.434-0.319-0.6-0.54c-0.169-0.222-0.287-0.459-0.357-0.722
			c-0.078-0.292-0.081-0.604-0.008-0.944c0.072-0.336,0.256-0.654,0.55-0.951l6.574-6.826c0.197-0.193,0.418-0.355,0.664-0.481
			c0.246-0.129,0.489-0.232,0.734-0.313c0.348-0.094,0.701-0.127,1.059-0.098c0.357,0.028,0.696,0.128,1.015,0.299
			c0.316,0.172,0.601,0.412,0.846,0.721c0.246,0.309,0.434,0.701,0.563,1.18l6.913,25.717c0.125,0.464,0.149,0.891,0.073,1.274
			c-0.076,0.386-0.216,0.729-0.427,1.023c-0.208,0.301-0.467,0.551-0.777,0.76c-0.31,0.205-0.638,0.357-0.987,0.45
			c-0.348,0.095-0.71,0.126-1.081,0.104c-0.372-0.027-0.722-0.113-1.052-0.271c-0.33-0.15-0.619-0.378-0.871-0.677
			c-0.25-0.297-0.438-0.679-0.563-1.143l-6.132-22.798L33.426,34.922z"/>
	</g>
</g>
</svg>
