<?xml version="1.0" encoding="utf-8"?>
<!-- Generator: Adobe Illustrator 15.0.0, SVG Export Plug-In . SVG Version: 6.00 Build 0)  -->
<!DOCTYPE svg PUBLIC "-//W3C//DTD SVG 1.1//EN" "http://www.w3.org/Graphics/SVG/1.1/DTD/svg11.dtd">
<svg version="1.1" id="Layer_1" xmlns="http://www.w3.org/2000/svg" xmlns:xlink="http://www.w3.org/1999/xlink" x="0px" y="0px"
	 width="96.831px" height="115.945px" viewBox="0 0 96.831 115.945" enable-background="new 0 0 96.831 115.945"
	 xml:space="preserve">
<g>
	<g>
		<polygon fill="#AD7E50" points="53.854,83.586 49.186,88.264 43.433,85.014 37.747,88.379 32.981,83.806 26.639,85.651 
			23.161,80.037 22.912,80.044 22.911,115.945 40.58,111.069 58.253,115.942 58.254,84.769 		"/>
		<polygon fill="#AD7E50" points="78.661,65.166 78.456,71.767 72.042,73.34 70.198,79.684 63.595,79.613 60.309,85.177 
			60.31,103.561 66.223,113.807 79.088,100.751 96.831,96.139 78.881,65.048 		"/>
	</g>
	<path fill="#AD7E50" d="M82.531,45.123l3.399-5.227l-4.124-4.672l1.99-5.905l-5.158-3.5l0.46-6.215l-5.865-2.109l-1.099-6.135
		l-6.205-0.585l-2.59-5.664l-6.155,0.977l-3.921-4.847l-5.72,2.479L42.542,0l-4.921,3.823l-5.771-2.356l-3.817,4.926l-6.174-0.851
		l-2.474,5.724l-6.19,0.712l-0.97,6.157l-5.82,2.232l0.59,6.2l-5.086,3.61l2.116,5.861L0,40.799l3.506,5.152l-2.715,5.609
		L5.47,55.68l-1.237,6.108l5.556,2.826l0.321,6.226l6.086,1.355l1.86,5.948l6.229-0.2l3.278,5.301l5.986-1.743l4.496,4.315
		l5.363-3.177l5.429,3.063l4.402-4.409l6.021,1.616l3.169-5.367l6.23,0.07l1.737-5.986l6.054-1.482l0.194-6.231l5.49-2.939
		l-1.359-6.082l4.589-4.217L82.531,45.123z M52.537,78.672c-19.731,5.287-40.085-6.465-45.372-26.196
		C1.878,32.743,13.629,12.39,33.36,7.103s40.085,6.465,45.372,26.196S72.269,73.385,52.537,78.672z"/>
	<g>
		<g>
			<g>
				<g>
					<path fill="#AD7E50" d="M71.537,36.974c0.002,0.289-0.003,0.581-0.031,0.874c-0.034,0.29-0.084,0.583-0.158,0.862
						c-0.035,0.141-0.077,0.278-0.122,0.412c-0.048,0.134-0.109,0.268-0.17,0.393c-0.492,1.006-1.311,1.5-1.976,1.757
						c-0.381,0.143-0.715,0.212-0.933,0.245c0.107,1.191,0.138,2.409,0.09,3.639c0.205-0.704,0.49-1.453,0.938-2.09
						c0.593-0.875,1.42-1.367,2.079-1.626c0.667-0.266,1.197-0.292,1.197-0.292s0.008,0.052,0.015,0.143
						c0.005,0.092,0.021,0.223,0.022,0.393c0.003,0.331,0.002,0.794-0.053,1.316c-0.068,0.522-0.155,1.101-0.354,1.659
						c-0.094,0.277-0.203,0.552-0.333,0.813c-0.137,0.259-0.294,0.5-0.467,0.717c-0.346,0.439-0.755,0.734-1.159,0.933
						c-0.398,0.196-0.798,0.302-1.149,0.352c-0.388,0.058-0.716,0.051-0.936,0.036c-0.152,1.153-0.376,2.306-0.675,3.438
						c0.093-0.155,0.188-0.317,0.285-0.477c0.144-0.218,0.307-0.436,0.474-0.645c0.165-0.206,0.344-0.403,0.543-0.585
						c0.399-0.357,0.809-0.613,1.222-0.793c0.409-0.18,0.812-0.281,1.17-0.337c0.713-0.11,1.236-0.015,1.236-0.015
						s-0.027,0.198-0.091,0.524c-0.07,0.324-0.162,0.78-0.342,1.274c-0.087,0.247-0.186,0.509-0.301,0.771
						c-0.121,0.259-0.258,0.52-0.405,0.771c-0.293,0.508-0.692,0.968-1.12,1.319c-0.886,0.695-1.828,0.795-2.537,0.739
						c-0.368-0.029-0.677-0.101-0.888-0.161c-0.386,1.056-0.831,2.089-1.345,3.08c0.446-0.47,0.966-0.927,1.536-1.263
						c0.468-0.263,0.937-0.415,1.372-0.503c0.437-0.085,0.853-0.096,1.21-0.072c0.72,0.052,1.209,0.259,1.209,0.259
						s-0.069,0.189-0.201,0.495c-0.067,0.149-0.148,0.332-0.249,0.531c-0.104,0.195-0.226,0.41-0.363,0.634
						c-0.538,0.897-1.403,1.897-2.406,2.384c-1.023,0.478-1.963,0.372-2.642,0.166c-0.332-0.107-0.605-0.232-0.796-0.333
						c-0.593,0.925-1.229,1.807-1.909,2.631c0.077-0.05,0.154-0.101,0.229-0.151c0.226-0.141,0.459-0.271,0.7-0.385
						c0.246-0.112,0.498-0.208,0.746-0.294c1.003-0.323,1.958-0.203,2.646,0.003c0.685,0.201,1.119,0.51,1.119,0.51
						s-0.097,0.177-0.302,0.44c-0.202,0.262-0.491,0.621-0.852,1.004c-0.732,0.747-1.774,1.556-2.877,1.803
						c-0.543,0.129-1.034,0.121-1.478,0.021c-0.444-0.095-0.822-0.257-1.132-0.437c-0.284-0.164-0.511-0.335-0.675-0.47
						c-0.769,0.753-1.564,1.447-2.362,2.076c0.048-0.017,0.097-0.04,0.149-0.056c0.248-0.085,0.511-0.155,0.77-0.211
						c0.258-0.065,0.521-0.113,0.786-0.135c0.529-0.044,1.025,0.022,1.459,0.135c0.429,0.108,0.808,0.271,1.12,0.447
						c0.627,0.351,0.979,0.744,0.979,0.744s-0.14,0.145-0.387,0.367c-0.239,0.229-0.62,0.498-1.056,0.792
						c-0.221,0.14-0.455,0.29-0.705,0.425c-0.259,0.129-0.527,0.247-0.804,0.355c-0.274,0.103-0.554,0.192-0.839,0.257
						c-0.284,0.063-0.574,0.088-0.853,0.092c-0.563,0.002-1.045-0.121-1.448-0.3c-0.409-0.189-0.743-0.438-1.007-0.681
						c-0.229-0.208-0.404-0.415-0.53-0.58c-0.058,0.032-0.113,0.067-0.169,0.103c-0.35,0.212-0.702,0.424-1.063,0.618
						c-0.089,0.049-0.179,0.095-0.267,0.145l-0.071,0.035l-0.013,0.009l-0.037,0.017l-0.032,0.017l-0.134,0.058
						c-0.09,0.039-0.176,0.08-0.263,0.119c-0.082,0.039-0.165,0.078-0.247,0.119c-0.608,0.301-1.178,0.636-1.706,0.978
						c1.082,0.166,2.021,0.378,2.805,0.576c0.873,0.218,1.55,0.433,2.01,0.583c0.229,0.077,0.403,0.139,0.526,0.183
						c0.122,0.045,0.184,0.067,0.184,0.067l-0.38,0.972c0,0-0.057-0.021-0.16-0.061c-0.112-0.044-0.282-0.104-0.502-0.178
						c-0.439-0.153-1.092-0.361-1.935-0.59c-0.839-0.227-1.876-0.464-3.073-0.644c-0.207-0.029-0.422-0.06-0.639-0.087
						c-0.178,0.133-0.351,0.268-0.515,0.396c-0.946,0.755-1.721,1.478-2.339,2.094c-0.616,0.619-1.078,1.126-1.382,1.479
						c-0.152,0.175-0.265,0.31-0.342,0.404c-0.074,0.088-0.111,0.133-0.111,0.133l-0.813-0.651c0,0,0.041-0.051,0.124-0.149
						c0.086-0.1,0.204-0.241,0.367-0.422c0.323-0.36,0.803-0.886,1.446-1.51c0.578-0.563,1.288-1.217,2.144-1.902
						c-0.629-0.031-1.291-0.037-1.97,0.008c-0.09,0.005-0.18,0.013-0.272,0.02c-0.096,0.01-0.19,0.018-0.287,0.029l-0.145,0.016
						l-0.037,0.002l-0.035,0.004h-0.023l-0.073,0.004c-0.104,0.001-0.206,0.007-0.307,0.009c-0.411,0.014-0.818,0.004-1.229-0.004
						c-0.064-0.003-0.131-0.006-0.197-0.004c-0.028,0.205-0.077,0.474-0.17,0.768c-0.104,0.341-0.271,0.723-0.532,1.093
						c-0.26,0.356-0.616,0.704-1.102,0.982c-0.245,0.137-0.51,0.26-0.786,0.349c-0.274,0.084-0.566,0.148-0.856,0.196
						c-0.288,0.043-0.583,0.076-0.871,0.093c-0.284,0.009-0.56-0.004-0.822-0.015c-0.524-0.036-0.989-0.079-1.312-0.158
						c-0.324-0.069-0.517-0.124-0.517-0.124s0.106-0.518,0.475-1.135c0.184-0.31,0.427-0.638,0.747-0.947
						c0.322-0.314,0.717-0.619,1.195-0.846c0.242-0.114,0.491-0.205,0.744-0.275c0.257-0.083,0.52-0.153,0.775-0.203
						c0.053-0.013,0.109-0.018,0.162-0.028c-1.008-0.146-2.046-0.349-3.09-0.615c-0.072,0.198-0.184,0.459-0.345,0.743
						c-0.183,0.312-0.424,0.64-0.763,0.944c-0.337,0.309-0.759,0.562-1.292,0.721c-1.079,0.337-2.383,0.157-3.394-0.123
						c-0.502-0.151-0.932-0.318-1.238-0.443c-0.311-0.125-0.482-0.231-0.482-0.231s0.22-0.483,0.713-0.999
						c0.495-0.523,1.261-1.104,2.292-1.327c0.256-0.049,0.523-0.092,0.791-0.118c0.266-0.021,0.536-0.026,0.798-0.016
						c0.092,0.006,0.183,0.012,0.275,0.017c-1.003-0.374-1.993-0.82-2.967-1.325c-0.118,0.184-0.29,0.429-0.526,0.688
						c-0.482,0.517-1.243,1.078-2.368,1.177c-1.111,0.079-2.361-0.354-3.275-0.861c-0.23-0.125-0.446-0.249-0.632-0.368
						c-0.187-0.121-0.35-0.239-0.482-0.335c-0.267-0.198-0.419-0.329-0.419-0.329s0.317-0.423,0.914-0.827
						c0.298-0.199,0.664-0.398,1.087-0.544c0.418-0.14,0.901-0.243,1.436-0.249c0.666,0.006,1.344,0.142,1.963,0.325
						c-0.938-0.602-1.841-1.274-2.703-1.995c-0.154,0.158-0.383,0.373-0.688,0.584c-0.588,0.403-1.45,0.786-2.565,0.627
						c-0.55-0.09-1.123-0.289-1.629-0.582c-0.255-0.145-0.504-0.302-0.742-0.465c-0.226-0.17-0.445-0.347-0.644-0.517
						c-0.398-0.34-0.709-0.688-0.931-0.934c-0.22-0.25-0.343-0.409-0.343-0.409s0.405-0.344,1.08-0.605
						c0.337-0.131,0.737-0.244,1.179-0.292c0.449-0.052,0.929-0.034,1.459,0.075c0.26,0.058,0.516,0.139,0.76,0.234
						c0.25,0.099,0.5,0.205,0.732,0.322c0.164,0.089,0.328,0.182,0.485,0.27c-0.825-0.831-1.597-1.718-2.303-2.641
						c-0.184,0.123-0.467,0.293-0.827,0.437c-0.332,0.134-0.729,0.241-1.177,0.271c-0.445,0.029-0.948-0.021-1.464-0.229
						c-0.262-0.101-0.519-0.231-0.768-0.386c-0.242-0.161-0.472-0.345-0.694-0.538c-0.45-0.384-0.814-0.841-1.136-1.259
						c-0.309-0.426-0.539-0.826-0.703-1.114c-0.082-0.147-0.135-0.27-0.176-0.352c-0.04-0.082-0.06-0.13-0.06-0.13
						s0.47-0.242,1.183-0.347c0.702-0.105,1.661-0.092,2.611,0.369c0.709,0.326,1.329,0.834,1.859,1.341
						c-0.654-1.042-1.236-2.111-1.738-3.197c-0.207,0.081-0.532,0.188-0.935,0.256c-0.704,0.109-1.658,0.09-2.589-0.534
						c-0.116-0.078-0.232-0.164-0.342-0.256c-0.106-0.093-0.212-0.191-0.313-0.295c-0.202-0.206-0.395-0.434-0.57-0.668
						c-0.166-0.24-0.318-0.49-0.461-0.741c-0.14-0.25-0.266-0.499-0.364-0.741c-0.202-0.482-0.36-0.918-0.444-1.238
						c-0.086-0.32-0.124-0.52-0.124-0.52s0.513-0.133,1.229-0.083c0.361,0.025,0.769,0.095,1.19,0.24
						c0.42,0.145,0.866,0.362,1.281,0.691c0.413,0.331,0.799,0.725,1.107,1.144c0.163,0.207,0.318,0.415,0.452,0.623
						c0.014,0.022,0.022,0.04,0.036,0.058c-0.437-1.211-0.787-2.425-1.043-3.613c-0.218,0.037-0.573,0.075-1,0.049
						c-0.721-0.038-1.625-0.276-2.415-1.083c-0.763-0.813-1.223-2.051-1.408-3.087c-0.107-0.513-0.139-0.975-0.158-1.305
						c-0.021-0.332-0.017-0.531-0.017-0.531s0.526-0.021,1.22,0.186c0.345,0.102,0.732,0.258,1.115,0.493
						c0.38,0.234,0.752,0.545,1.1,0.953c0.171,0.209,0.321,0.427,0.456,0.656c0.139,0.228,0.265,0.467,0.375,0.704
						c0.136,0.306,0.264,0.613,0.373,0.909c-0.153-1.16-0.227-2.278-0.238-3.348c-0.216-0.004-0.589-0.031-1.026-0.149
						c-0.347-0.091-0.734-0.24-1.109-0.485c-0.37-0.242-0.732-0.583-1.036-1.059c-0.296-0.476-0.495-1.04-0.618-1.618
						c-0.107-0.573-0.165-1.164-0.147-1.688c0.003-0.263,0.016-0.51,0.031-0.734c0.02-0.22,0.049-0.416,0.071-0.582
						c0.052-0.327,0.097-0.525,0.097-0.525s0.521,0.089,1.156,0.429c0.642,0.342,1.369,0.92,1.875,1.863
						c0.433,0.832,0.643,1.806,0.755,2.645c0.003-0.065,0.008-0.129,0.011-0.192c0.022-0.365,0.063-0.721,0.092-1.068
						c0.037-0.348,0.088-0.685,0.127-1.014c0.048-0.326,0.104-0.64,0.151-0.942c0.086-0.477,0.182-0.925,0.282-1.347
						c-0.02-0.053-0.062-0.175-0.109-0.354c-0.066-0.244-0.168-0.593-0.247-0.999c-0.064-0.424-0.167-0.834-0.205-1.352
						c-0.037-0.51-0.02-1.105,0.165-1.749c0.184-0.643,0.533-1.263,0.981-1.734c0.445-0.479,0.962-0.792,1.421-0.947
						c0.114-0.041,0.221-0.082,0.328-0.103c0.104-0.023,0.208-0.041,0.302-0.057c0.093-0.013,0.183-0.026,0.26-0.032
						c0.082,0,0.156-0.002,0.224,0c0.267,0.008,0.412,0.031,0.412,0.031s-0.057,0.148-0.154,0.379
						c-0.022,0.057-0.05,0.116-0.077,0.185c-0.023,0.065-0.051,0.141-0.078,0.221c-0.023,0.075-0.053,0.152-0.082,0.236
						c-0.029,0.081-0.047,0.176-0.072,0.265c-0.108,0.353-0.166,0.745-0.229,1.138c-0.064,0.393-0.129,0.807-0.263,1.28
						c-0.138,0.471-0.334,0.963-0.586,1.436c-0.247,0.465-0.559,0.936-0.862,1.236c-0.284,0.302-0.541,0.532-0.744,0.692
						c-0.119,0.5-0.23,1.044-0.329,1.625c-0.028,0.183-0.054,0.367-0.085,0.555c0.047-0.13,0.095-0.263,0.152-0.398
						c0.096-0.223,0.215-0.451,0.345-0.667c0.25-0.441,0.601-0.842,0.998-1.143c0.81-0.602,1.73-0.688,2.43-0.64
						c0.347,0.047,0.644,0.116,0.854,0.176c0.211,0.057,0.337,0.1,0.337,0.1c-0.014,0.04-0.167,0.563-0.465,1.185
						c-0.154,0.344-0.366,0.724-0.604,1.098c-0.257,0.368-0.544,0.735-0.913,1.043c-0.373,0.309-0.755,0.538-1.159,0.697
						c-0.396,0.163-0.792,0.261-1.145,0.316c-0.447,0.073-0.822,0.074-1.033,0.065c-0.019,0.199-0.034,0.403-0.045,0.608
						c-0.012,0.36-0.033,0.73-0.04,1.107c-0.01,0.531,0.005,1.075,0.029,1.635c0.13-0.793,0.442-1.663,0.994-2.295
						c0.685-0.755,1.547-1.024,2.258-1.114c0.701-0.093,1.229-0.016,1.229-0.016s-0.011,0.143-0.052,0.376
						c-0.03,0.229-0.081,0.556-0.177,0.923c-0.163,0.737-0.477,1.652-1.051,2.404c-0.15,0.189-0.312,0.357-0.482,0.513
						c-0.166,0.148-0.337,0.283-0.515,0.404c-0.356,0.236-0.725,0.412-1.059,0.537c-0.406,0.154-0.761,0.231-0.974,0.266
						c0.047,0.402,0.106,0.807,0.175,1.217c0.133,0.806,0.317,1.628,0.539,2.456c-0.01-0.278-0.006-0.567,0.035-0.86
						c0.033-0.254,0.071-0.505,0.15-0.748c0.077-0.245,0.171-0.481,0.289-0.704c0.233-0.439,0.576-0.777,0.917-1.03
						c0.341-0.258,0.705-0.428,1.036-0.55c0.663-0.245,1.194-0.285,1.194-0.285s0.004,0.036,0.012,0.102
						c0.005,0.063,0.021,0.157,0.03,0.273c0.023,0.234,0.024,0.568,0.031,0.943c-0.005,0.187-0.012,0.391-0.033,0.604
						c-0.016,0.208-0.033,0.423-0.071,0.645c-0.088,0.444-0.187,0.896-0.403,1.333c-0.403,0.86-1.097,1.479-1.687,1.865
						c-0.342,0.226-0.657,0.374-0.859,0.46c0.086,0.238,0.174,0.478,0.265,0.718c0.337,0.864,0.724,1.726,1.166,2.577
						c-0.052-0.227-0.101-0.458-0.123-0.701c-0.039-0.51-0.032-1.024,0.12-1.516c0.279-0.964,0.971-1.587,1.563-1.968
						c0.594-0.381,1.102-0.536,1.102-0.536s0.054,0.133,0.121,0.356c0.061,0.228,0.158,0.544,0.232,0.914
						c0.065,0.377,0.159,0.79,0.167,1.243c0.034,0.443,0.004,0.919-0.1,1.386c-0.099,0.461-0.288,0.885-0.514,1.252
						c-0.216,0.367-0.474,0.682-0.722,0.934c-0.268,0.281-0.53,0.487-0.71,0.618c0.12,0.19,0.243,0.383,0.37,0.572
						c0.508,0.759,1.064,1.502,1.655,2.214c-0.278-0.623-0.47-1.335-0.43-2.022c0.075-1.013,0.596-1.757,1.099-2.266
						c0.498-0.504,0.959-0.765,0.959-0.765s0.077,0.117,0.188,0.327c0.121,0.201,0.278,0.486,0.43,0.837
						c0.323,0.681,0.64,1.593,0.649,2.538c-0.002,0.243-0.024,0.474-0.065,0.699c-0.043,0.222-0.093,0.436-0.159,0.639
						c-0.135,0.406-0.316,0.769-0.504,1.072c-0.192,0.32-0.389,0.566-0.533,0.73c0.186,0.188,0.372,0.369,0.563,0.547
						c0.619,0.578,1.265,1.133,1.93,1.646c-0.084-0.115-0.163-0.238-0.239-0.361c-0.272-0.426-0.464-0.923-0.547-1.411
						c-0.156-1.002,0.195-1.855,0.563-2.45c0.379-0.603,0.769-0.958,0.769-0.958s0.098,0.101,0.262,0.27
						c0.163,0.171,0.367,0.427,0.603,0.724c0.232,0.295,0.466,0.662,0.686,1.045c0.108,0.195,0.204,0.408,0.292,0.624
						c0.088,0.214,0.161,0.437,0.216,0.672c0.099,0.47,0.116,0.924,0.075,1.35c-0.042,0.426-0.141,0.822-0.256,1.158
						c-0.112,0.333-0.24,0.609-0.343,0.802c0.252,0.157,0.504,0.31,0.762,0.459c0.673,0.39,1.357,0.75,2.048,1.085
						c-0.079-0.069-0.155-0.141-0.229-0.214c-0.348-0.378-0.649-0.809-0.839-1.27c-0.194-0.454-0.237-0.937-0.22-1.358
						c0.02-0.43,0.115-0.819,0.232-1.152c0.115-0.332,0.25-0.606,0.354-0.798c0.108-0.193,0.182-0.305,0.182-0.305
						s0.029,0.02,0.086,0.055c0.054,0.034,0.135,0.084,0.232,0.154c0.098,0.063,0.212,0.147,0.338,0.245
						c0.063,0.051,0.127,0.103,0.194,0.158c0.072,0.054,0.146,0.108,0.218,0.168c0.295,0.234,0.608,0.538,0.901,0.878
						c0.299,0.327,0.573,0.713,0.774,1.154c0.409,0.854,0.452,1.771,0.375,2.483c-0.038,0.334-0.1,0.617-0.156,0.825
						c0.253,0.091,0.51,0.18,0.764,0.26c0.736,0.237,1.475,0.438,2.21,0.606c-0.49-0.301-0.947-0.683-1.271-1.151
						c-0.563-0.851-0.614-1.752-0.533-2.453c0.084-0.706,0.287-1.194,0.287-1.194s0.132,0.055,0.35,0.133
						c0.221,0.086,0.522,0.211,0.854,0.396c0.673,0.342,1.484,0.861,2.074,1.605c0.146,0.188,0.271,0.39,0.376,0.595
						c0.107,0.196,0.194,0.395,0.268,0.597c0.146,0.4,0.228,0.795,0.266,1.15c0.04,0.313,0.042,0.588,0.035,0.801
						c0.118,0.016,0.235,0.031,0.354,0.046l0.161,0.021l0.073,0.009c0.003-0.001,0.006,0.002,0.005-0.001l0.021,0.002l0.039,0.003
						c0.109,0.006,0.215,0.014,0.322,0.021c0.213,0.019,0.425,0.031,0.638,0.047c0.105,0.009,0.209,0.015,0.313,0.022l0.157,0.01
						l0.02,0.003l0.034-0.003l0.082,0.005c0.205,0,0.409,0.005,0.614,0.006c0.41,0.005,0.804,0.011,1.185-0.007
						c0.097,0,0.193-0.007,0.285-0.012l0.068-0.002l0.012-0.001c0.001-0.001,0.004-0.002,0.004-0.002l0.037-0.005l0.146-0.016
						c0.095-0.011,0.19-0.021,0.287-0.032c0.102-0.007,0.199-0.02,0.299-0.023c1.149-0.092,2.215-0.052,3.192,0.042
						c0.801-0.57,1.707-1.139,2.745-1.633c0.09-0.047,0.182-0.086,0.271-0.129c0.092-0.039,0.179-0.079,0.268-0.117l0.134-0.059
						l0.035-0.015c-0.002,0.001,0,0,0.004-0.001l0.008-0.004l0.062-0.033c0.085-0.042,0.169-0.083,0.252-0.132
						c0.34-0.175,0.681-0.377,1.028-0.586c0.177-0.103,0.356-0.211,0.533-0.313l0.067-0.046l0.032-0.015l0.012-0.011l0.133-0.089
						c0.085-0.058,0.172-0.114,0.26-0.175c0.176-0.12,0.353-0.236,0.528-0.359c0.092-0.062,0.179-0.121,0.27-0.181l0.032-0.021
						l0.018-0.013c0,0.004,0,0,0.006-0.002l0.059-0.044l0.127-0.099c0.095-0.072,0.191-0.145,0.283-0.217
						c-0.111-0.181-0.248-0.42-0.37-0.71c-0.142-0.328-0.27-0.711-0.343-1.131c-0.038-0.211-0.063-0.426-0.069-0.649
						c-0.01-0.231-0.001-0.469,0.029-0.704c0.139-0.938,0.583-1.795,0.995-2.427c0.197-0.327,0.393-0.585,0.539-0.77
						c0.152-0.177,0.238-0.29,0.238-0.29s0.422,0.321,0.846,0.891c0.422,0.566,0.828,1.372,0.765,2.392
						c-0.044,0.566-0.251,1.127-0.525,1.633c0.554-0.515,1.096-1.058,1.611-1.631c0.182-0.197,0.359-0.401,0.533-0.606
						c-0.152-0.152-0.351-0.366-0.547-0.637c-0.426-0.578-0.846-1.394-0.915-2.34c-0.051-0.481-0.008-0.952,0.092-1.387
						c0.083-0.44,0.199-0.858,0.337-1.209c0.037-0.089,0.069-0.172,0.104-0.254c0.03-0.082,0.064-0.16,0.091-0.235
						c0.062-0.147,0.119-0.277,0.17-0.381c0.052-0.11,0.094-0.193,0.124-0.25c0.03-0.059,0.048-0.09,0.048-0.09
						s0.12,0.06,0.307,0.173c0.188,0.114,0.444,0.283,0.707,0.515c0.268,0.229,0.545,0.52,0.777,0.882
						c0.228,0.355,0.433,0.795,0.493,1.285c0.062,0.495,0.017,1.019-0.098,1.521c-0.025,0.1-0.057,0.199-0.089,0.299
						c0.433-0.636,0.844-1.29,1.231-1.964c0.149-0.259,0.29-0.517,0.431-0.778c-0.187-0.115-0.436-0.29-0.699-0.522
						c-0.269-0.233-0.552-0.528-0.801-0.876c-0.248-0.348-0.457-0.751-0.607-1.207c-0.073-0.23-0.119-0.46-0.148-0.689
						c-0.033-0.23-0.058-0.463-0.063-0.686c0-0.441,0.021-0.877,0.074-1.248c0.054-0.374,0.102-0.699,0.157-0.928
						c0.061-0.229,0.092-0.364,0.092-0.364s0.519,0.112,1.146,0.445c0.616,0.331,1.349,0.894,1.714,1.84
						c0.171,0.465,0.255,0.991,0.232,1.495c-0.005,0.146-0.016,0.293-0.028,0.434c0.318-0.777,0.602-1.581,0.848-2.391
						c0.075-0.25,0.147-0.501,0.215-0.756c-0.209-0.069-0.502-0.185-0.829-0.366c-0.312-0.169-0.65-0.392-0.972-0.676
						c-0.158-0.144-0.308-0.304-0.454-0.475c-0.148-0.175-0.286-0.362-0.405-0.573c-0.467-0.822-0.65-1.771-0.711-2.521
						c-0.044-0.38-0.049-0.706-0.047-0.939c-0.007-0.238,0.002-0.378,0.002-0.378s0.529-0.004,1.213,0.183
						c0.688,0.189,1.511,0.573,2.083,1.413c0.379,0.576,0.569,1.287,0.64,1.966c0.157-0.911,0.266-1.833,0.326-2.744
						c0.015-0.228,0.026-0.456,0.034-0.681c-0.223-0.023-0.547-0.071-0.925-0.18c-0.34-0.095-0.721-0.238-1.09-0.449
						c-0.377-0.205-0.753-0.478-1.074-0.826c-0.318-0.354-0.584-0.749-0.777-1.15c-0.216-0.397-0.345-0.802-0.476-1.161
						c-0.118-0.358-0.192-0.681-0.254-0.908c-0.055-0.227-0.074-0.368-0.074-0.368s0.518-0.119,1.224-0.087
						c0.698,0.035,1.611,0.228,2.337,0.922c0.379,0.35,0.641,0.792,0.859,1.254c0.104,0.222,0.175,0.447,0.243,0.669
						c-0.043-0.959-0.135-1.898-0.276-2.815c-0.042-0.254-0.086-0.505-0.132-0.753c-0.218,0.026-0.562,0.055-0.972,0.03
						c-0.705-0.04-1.617-0.229-2.391-0.773c-0.408-0.269-0.721-0.61-1.019-0.951c-0.145-0.173-0.27-0.35-0.388-0.522
						c-0.124-0.175-0.232-0.348-0.328-0.507c-0.179-0.329-0.35-0.617-0.443-0.833c-0.053-0.105-0.087-0.194-0.114-0.251
						c-0.025-0.062-0.039-0.094-0.039-0.094s0.479-0.232,1.176-0.351c0.349-0.061,0.748-0.095,1.173-0.042
						c0.424,0.048,0.885,0.171,1.309,0.434c0.215,0.134,0.415,0.291,0.606,0.464c0.185,0.173,0.349,0.37,0.499,0.574
						c0.185,0.232,0.331,0.481,0.463,0.728c-0.22-0.829-0.475-1.632-0.759-2.397c-0.146-0.39-0.299-0.769-0.457-1.141
						c-0.204,0.076-0.548,0.187-0.979,0.257c-0.352,0.059-0.758,0.091-1.185,0.063c-0.212-0.016-0.431-0.047-0.648-0.092
						c-0.223-0.05-0.451-0.114-0.675-0.203c-0.872-0.364-1.601-1-2.111-1.557c-0.267-0.271-0.477-0.526-0.614-0.711
						c-0.152-0.182-0.231-0.3-0.231-0.3s0.415-0.33,1.071-0.601c0.657-0.277,1.541-0.476,2.514-0.164
						c0.792,0.271,1.495,0.869,2.006,1.49c-0.258-0.497-0.519-0.975-0.792-1.431c-0.195-0.322-0.397-0.633-0.588-0.938
						c-0.11-0.174-0.225-0.342-0.342-0.505c-0.182,0.113-0.504,0.3-0.929,0.46c-0.335,0.129-0.728,0.242-1.151,0.299
						c-0.426,0.063-0.874,0.056-1.353-0.023c-0.472-0.083-0.903-0.258-1.31-0.448c-0.395-0.205-0.767-0.429-1.072-0.648
						c-0.57-0.39-0.963-0.766-0.996-0.793c0,0,0.089-0.101,0.242-0.255c0.152-0.156,0.375-0.365,0.654-0.58
						c0.577-0.391,1.418-0.776,2.422-0.66c0.494,0.062,0.996,0.233,1.436,0.49c0.222,0.121,0.438,0.261,0.632,0.406
						c0.118,0.089,0.226,0.179,0.332,0.268c-0.117-0.147-0.237-0.293-0.352-0.438c-0.376-0.453-0.743-0.869-1.098-1.242
						c-0.255-0.037-0.591-0.109-0.989-0.228c-0.415-0.108-0.922-0.36-1.366-0.64c-0.452-0.284-0.872-0.611-1.225-0.95
						c-0.354-0.343-0.618-0.67-0.868-0.978c-0.247-0.31-0.5-0.619-0.769-0.871c-0.063-0.064-0.127-0.138-0.193-0.192
						c-0.068-0.059-0.13-0.111-0.19-0.164c-0.064-0.056-0.123-0.107-0.176-0.152c-0.061-0.045-0.11-0.084-0.161-0.121
						c-0.199-0.15-0.32-0.252-0.32-0.252s0.112-0.093,0.341-0.232c0.055-0.035,0.12-0.07,0.194-0.111
						c0.069-0.034,0.152-0.066,0.239-0.103c0.088-0.033,0.186-0.069,0.291-0.102c0.104-0.036,0.213-0.054,0.335-0.076
						c0.475-0.095,1.078-0.082,1.703,0.11c0.624,0.185,1.236,0.547,1.717,1.012c0.48,0.466,0.794,0.973,1.017,1.433
						c0.229,0.466,0.345,0.873,0.497,1.272c0.139,0.391,0.225,0.744,0.287,0.989c0.048,0.178,0.073,0.305,0.082,0.361
						c0.298,0.314,0.605,0.654,0.917,1.024c0.196,0.238,0.401,0.481,0.602,0.741c0.201,0.265,0.412,0.531,0.619,0.813
						c0.199,0.286,0.412,0.574,0.616,0.878c0.032,0.055,0.068,0.107,0.103,0.163c-0.321-0.783-0.628-1.731-0.668-2.668
						c-0.032-1.07,0.308-1.935,0.691-2.552c0.381-0.611,0.787-0.949,0.787-0.949s0.14,0.149,0.345,0.408
						c0.104,0.132,0.228,0.286,0.355,0.467c0.124,0.187,0.259,0.395,0.394,0.62c0.276,0.445,0.523,0.986,0.717,1.537
						c0.184,0.562,0.293,1.149,0.276,1.709c-0.027,0.564-0.17,1.04-0.37,1.436c-0.202,0.399-0.466,0.724-0.72,0.976
						c-0.32,0.32-0.629,0.53-0.811,0.641c0.523,0.933,1.017,1.938,1.464,3.021c-0.055-0.312-0.096-0.642-0.129-0.975
						c-0.024-0.261-0.034-0.531-0.024-0.798c-0.002-0.266,0.021-0.529,0.063-0.796c0.097-0.527,0.265-0.982,0.477-1.375
						c0.215-0.396,0.47-0.725,0.718-0.985c0.496-0.525,0.963-0.771,0.963-0.771s0.104,0.172,0.251,0.469
						c0.149,0.296,0.352,0.712,0.519,1.209c0.355,0.99,0.576,2.292,0.321,3.377c-0.277,1.094-0.943,1.753-1.547,2.146
						c-0.357,0.236-0.687,0.382-0.892,0.458c0.372,1.157,0.677,2.383,0.904,3.65c0.002-0.021,0.001-0.041,0-0.067
						c0.015-0.248,0.043-0.505,0.08-0.766c0.058-0.517,0.194-1.051,0.387-1.544c0.194-0.492,0.474-0.904,0.766-1.24
						c0.291-0.337,0.613-0.601,0.909-0.803c0.596-0.4,1.106-0.543,1.106-0.543s0.063,0.192,0.148,0.514
						c0.092,0.318,0.173,0.774,0.238,1.294C71.519,36.408,71.531,36.688,71.537,36.974"/>
				</g>
			</g>
		</g>
		<g>
			<path fill="#AD7E50" d="M39.707,38.706c0.796-0.229,1.517-0.527,2.17-0.896c0.646-0.371,1.179-0.815,1.59-1.332
				c0.414-0.519,0.695-1.097,0.841-1.739c0.15-0.644,0.12-1.343-0.084-2.103c-0.188-0.704-0.493-1.281-0.92-1.734
				c-0.426-0.452-0.927-0.794-1.495-1.028c-0.572-0.23-1.193-0.35-1.873-0.359c-0.676-0.006-1.362,0.084-2.053,0.27
				c-0.663,0.178-1.313,0.415-1.953,0.717c-0.637,0.303-1.227,0.604-1.765,0.899c-0.535,0.298-1.002,0.56-1.399,0.79
				c-0.396,0.227-0.678,0.365-0.839,0.408c-0.297,0.08-0.578,0.096-0.835,0.05c-0.261-0.047-0.496-0.138-0.709-0.278
				c-0.211-0.138-0.393-0.316-0.543-0.528c-0.151-0.214-0.26-0.443-0.325-0.688c-0.108-0.405-0.092-0.83,0.052-1.268
				c0.145-0.437,0.47-0.826,0.973-1.165c0.867-0.668,1.85-1.277,2.944-1.821c1.097-0.549,2.266-0.989,3.513-1.323
				c1.517-0.406,2.953-0.604,4.308-0.588c1.354,0.013,2.578,0.237,3.667,0.673c1.091,0.432,2.015,1.08,2.772,1.936
				c0.761,0.858,1.311,1.922,1.653,3.198c0.228,0.853,0.298,1.679,0.208,2.48s-0.305,1.551-0.643,2.244
				c-0.337,0.69-0.783,1.315-1.339,1.869c-0.555,0.559-1.179,1.007-1.87,1.354l0.021,0.082c0.982-0.076,1.895-0.003,2.738,0.225
				c0.846,0.222,1.611,0.58,2.293,1.075c0.685,0.489,1.272,1.107,1.759,1.848c0.49,0.741,0.858,1.576,1.109,2.513
				c0.389,1.45,0.438,2.771,0.146,3.959c-0.29,1.191-0.83,2.243-1.612,3.167c-0.785,0.922-1.771,1.708-2.964,2.363
				c-1.188,0.649-2.482,1.164-3.877,1.538c-0.585,0.157-1.192,0.279-1.827,0.372c-0.64,0.091-1.289,0.144-1.952,0.161
				c-0.665,0.021-1.325,0.007-1.979-0.035c-0.658-0.042-1.295-0.127-1.911-0.25c-0.511-0.068-0.914-0.237-1.213-0.513
				c-0.303-0.276-0.496-0.591-0.592-0.945c-0.064-0.243-0.085-0.493-0.059-0.744c0.026-0.254,0.099-0.492,0.225-0.714
				c0.12-0.224,0.289-0.419,0.504-0.594c0.216-0.172,0.47-0.3,0.77-0.381c0.066-0.018,0.139-0.033,0.217-0.044
				c0.076-0.014,0.157-0.025,0.241-0.036c0.342,0.04,0.751,0.074,1.214,0.102c0.467,0.028,0.966,0.04,1.5,0.033
				c0.538-0.007,1.103-0.041,1.695-0.104c0.593-0.066,1.192-0.179,1.802-0.343c0.802-0.215,1.505-0.501,2.113-0.858
				c0.606-0.36,1.098-0.783,1.472-1.266c0.369-0.484,0.612-1.028,0.726-1.632c0.115-0.607,0.075-1.268-0.117-1.986
				c-0.214-0.798-0.556-1.474-1.022-2.022c-0.469-0.551-1.027-0.973-1.678-1.264c-0.651-0.287-1.377-0.444-2.176-0.472
				c-0.798-0.025-1.631,0.078-2.497,0.31l-1.484,0.398c-0.299,0.08-0.568,0.098-0.815,0.054c-0.241-0.042-0.458-0.133-0.646-0.263
				c-0.186-0.131-0.346-0.292-0.478-0.481s-0.228-0.401-0.289-0.63c-0.124-0.463-0.088-0.916,0.104-1.359
				c0.193-0.443,0.58-0.749,1.159-0.92L39.707,38.706z"/>
		</g>
	</g>
</g>
</svg>
