<?xml version="1.0" encoding="utf-8"?>
<!-- Generator: Adobe Illustrator 15.0.0, SVG Export Plug-In . SVG Version: 6.00 Build 0)  -->
<!DOCTYPE svg PUBLIC "-//W3C//DTD SVG 1.1//EN" "http://www.w3.org/Graphics/SVG/1.1/DTD/svg11.dtd">
<svg version="1.1" id="Layer_1" xmlns="http://www.w3.org/2000/svg" xmlns:xlink="http://www.w3.org/1999/xlink" x="0px" y="0px"
	 width="96.831px" height="115.944px" viewBox="0 0 96.831 115.944" enable-background="new 0 0 96.831 115.944"
	 xml:space="preserve">
<g>
	<g>
		<g>
			<polygon fill="#CCC2C2" points="53.854,83.587 49.186,88.264 43.434,85.015 37.747,88.378 32.981,83.806 26.64,85.652 
				23.161,80.037 22.912,80.043 22.911,115.944 40.58,111.068 58.253,115.941 58.255,84.77 			"/>
			<polygon fill="#CCC2C2" points="78.661,65.166 78.457,71.768 72.042,73.34 70.197,79.684 63.596,79.614 60.31,85.178 
				60.31,103.56 66.223,113.807 79.088,100.75 96.831,96.138 78.881,65.049 			"/>
		</g>
		<path fill="#CCC2C2" d="M82.531,45.122l3.399-5.224l-4.124-4.672l1.99-5.907l-5.158-3.5l0.46-6.216l-5.864-2.108l-1.1-6.135
			l-6.205-0.585l-2.59-5.664l-6.154,0.977l-3.922-4.847l-5.719,2.48L42.542,0l-4.921,3.824l-5.771-2.357l-3.817,4.926l-6.174-0.851
			l-2.474,5.725l-6.19,0.71l-0.969,6.158l-5.821,2.232l0.59,6.2l-5.086,3.61l2.117,5.861L0,40.798l3.506,5.153l-2.715,5.609
			l4.68,4.12l-1.238,6.108l5.556,2.824l0.321,6.227l6.086,1.356l1.86,5.947l6.229-0.199l3.278,5.301l5.986-1.743l4.495,4.315
			l5.363-3.178l5.43,3.064l4.401-4.411l6.021,1.618l3.169-5.368l6.23,0.071l1.738-5.986l6.054-1.482l0.193-6.231l5.49-2.94
			l-1.359-6.082l4.59-4.217L82.531,45.122z M52.537,78.673C32.806,83.96,12.452,72.206,7.166,52.477
			C1.878,32.744,13.629,12.39,33.36,7.103S73.445,13.567,78.732,33.3C84.02,53.029,72.27,73.386,52.537,78.673z"/>
		<g>
			<g>
				<g>
					<g>
						<path fill="#CCC2C2" d="M71.537,36.974c0.002,0.288-0.003,0.58-0.031,0.873c-0.034,0.29-0.084,0.584-0.158,0.863
							c-0.034,0.141-0.076,0.279-0.121,0.413c-0.048,0.134-0.11,0.266-0.171,0.391c-0.492,1.008-1.311,1.501-1.975,1.759
							c-0.382,0.143-0.715,0.211-0.933,0.244c0.106,1.191,0.137,2.408,0.089,3.638c0.205-0.702,0.49-1.453,0.938-2.089
							c0.593-0.875,1.421-1.365,2.079-1.627c0.668-0.264,1.197-0.291,1.197-0.291s0.008,0.053,0.015,0.143
							c0.005,0.093,0.022,0.225,0.022,0.393c0.003,0.332,0.002,0.793-0.053,1.315c-0.068,0.523-0.155,1.102-0.354,1.66
							c-0.095,0.278-0.203,0.552-0.334,0.813c-0.137,0.258-0.293,0.499-0.467,0.715c-0.346,0.44-0.755,0.734-1.158,0.934
							c-0.399,0.197-0.799,0.301-1.15,0.352c-0.388,0.057-0.716,0.051-0.936,0.035c-0.152,1.155-0.375,2.307-0.675,3.439
							c0.094-0.155,0.188-0.316,0.285-0.477c0.144-0.218,0.307-0.436,0.474-0.645c0.165-0.205,0.344-0.404,0.543-0.585
							c0.399-0.356,0.809-0.613,1.222-0.793c0.409-0.181,0.812-0.281,1.17-0.338c0.714-0.108,1.236-0.014,1.236-0.014
							s-0.026,0.198-0.091,0.525c-0.069,0.324-0.162,0.779-0.342,1.275c-0.087,0.245-0.186,0.506-0.3,0.77
							c-0.122,0.257-0.259,0.519-0.406,0.771c-0.293,0.506-0.692,0.967-1.12,1.318c-0.885,0.695-1.827,0.797-2.537,0.74
							c-0.368-0.029-0.677-0.102-0.888-0.161c-0.386,1.054-0.83,2.089-1.345,3.078c0.447-0.469,0.967-0.924,1.537-1.261
							c0.467-0.263,0.936-0.415,1.371-0.504c0.438-0.085,0.854-0.095,1.21-0.071c0.72,0.053,1.209,0.257,1.209,0.257
							s-0.068,0.19-0.201,0.495c-0.067,0.151-0.148,0.334-0.249,0.533c-0.103,0.195-0.226,0.41-0.363,0.634
							c-0.537,0.897-1.403,1.896-2.406,2.383c-1.023,0.479-1.963,0.373-2.642,0.166c-0.332-0.106-0.605-0.231-0.796-0.333
							c-0.593,0.924-1.229,1.809-1.908,2.631c0.076-0.051,0.153-0.102,0.229-0.149c0.225-0.143,0.458-0.272,0.699-0.388
							c0.246-0.11,0.498-0.207,0.746-0.293c1.003-0.323,1.958-0.203,2.646,0.005c0.685,0.2,1.118,0.509,1.118,0.509
							s-0.097,0.176-0.302,0.439c-0.202,0.262-0.491,0.62-0.852,1.004c-0.732,0.746-1.773,1.557-2.877,1.802
							c-0.542,0.131-1.034,0.122-1.477,0.023c-0.444-0.096-0.823-0.258-1.132-0.437c-0.285-0.164-0.511-0.336-0.676-0.471
							c-0.769,0.753-1.564,1.447-2.362,2.077c0.048-0.019,0.097-0.04,0.15-0.056c0.247-0.087,0.51-0.157,0.769-0.213
							c0.258-0.064,0.522-0.112,0.786-0.134c0.529-0.044,1.025,0.023,1.459,0.136c0.429,0.107,0.809,0.271,1.12,0.446
							c0.627,0.351,0.979,0.746,0.979,0.746s-0.14,0.143-0.387,0.364c-0.239,0.231-0.62,0.5-1.055,0.793
							c-0.222,0.142-0.455,0.291-0.705,0.425c-0.259,0.13-0.527,0.247-0.805,0.354c-0.273,0.104-0.554,0.193-0.838,0.259
							c-0.284,0.063-0.575,0.087-0.854,0.091c-0.563,0.002-1.044-0.121-1.448-0.299c-0.408-0.189-0.743-0.438-1.006-0.682
							c-0.229-0.208-0.405-0.416-0.531-0.58c-0.058,0.031-0.112,0.068-0.169,0.102c-0.349,0.213-0.701,0.427-1.062,0.62
							c-0.09,0.048-0.18,0.094-0.267,0.145l-0.072,0.034l-0.013,0.009l-0.036,0.018l-0.033,0.015l-0.134,0.06
							c-0.09,0.038-0.176,0.078-0.263,0.117c-0.082,0.04-0.165,0.079-0.247,0.12c-0.608,0.302-1.178,0.636-1.706,0.978
							c1.082,0.167,2.021,0.378,2.806,0.577c0.872,0.217,1.549,0.432,2.01,0.584c0.228,0.074,0.402,0.138,0.525,0.181
							c0.122,0.046,0.184,0.067,0.184,0.067l-0.379,0.972c0,0-0.058-0.021-0.161-0.061c-0.112-0.045-0.281-0.103-0.502-0.179
							c-0.439-0.153-1.092-0.36-1.934-0.588c-0.84-0.227-1.877-0.464-3.073-0.645c-0.207-0.029-0.423-0.061-0.64-0.088
							c-0.178,0.133-0.351,0.269-0.515,0.397c-0.946,0.755-1.721,1.477-2.338,2.094c-0.617,0.619-1.079,1.125-1.383,1.477
							c-0.152,0.177-0.265,0.31-0.342,0.405c-0.074,0.088-0.11,0.133-0.11,0.133l-0.813-0.651c0,0,0.04-0.049,0.123-0.15
							c0.086-0.099,0.204-0.241,0.368-0.42c0.322-0.361,0.802-0.887,1.445-1.51c0.579-0.564,1.288-1.217,2.144-1.903
							c-0.629-0.031-1.29-0.036-1.969,0.008c-0.091,0.005-0.181,0.013-0.273,0.02c-0.096,0.009-0.19,0.018-0.287,0.029l-0.145,0.016
							L46.128,70.1l-0.036,0.002l-0.023,0.001l-0.073,0.005c-0.103,0-0.205,0.007-0.306,0.009c-0.412,0.014-0.819,0.003-1.229-0.006
							c-0.063-0.001-0.131-0.006-0.197-0.004c-0.028,0.206-0.076,0.475-0.17,0.769c-0.104,0.341-0.27,0.725-0.531,1.094
							c-0.26,0.355-0.617,0.703-1.103,0.981c-0.245,0.137-0.509,0.261-0.786,0.35c-0.274,0.083-0.565,0.147-0.856,0.195
							c-0.288,0.044-0.583,0.077-0.87,0.094c-0.285,0.009-0.561-0.004-0.823-0.016c-0.524-0.036-0.988-0.078-1.312-0.159
							c-0.324-0.068-0.516-0.122-0.516-0.122s0.105-0.518,0.474-1.136c0.185-0.309,0.427-0.639,0.747-0.947
							c0.322-0.314,0.717-0.62,1.196-0.846c0.241-0.114,0.491-0.204,0.743-0.276c0.256-0.083,0.52-0.153,0.775-0.201
							c0.054-0.013,0.109-0.02,0.163-0.027c-1.008-0.146-2.047-0.35-3.091-0.617c-0.072,0.198-0.183,0.461-0.344,0.744
							c-0.184,0.311-0.425,0.639-0.764,0.944c-0.337,0.308-0.759,0.561-1.292,0.719c-1.078,0.34-2.383,0.157-3.394-0.122
							c-0.502-0.152-0.932-0.318-1.238-0.443c-0.311-0.126-0.482-0.229-0.482-0.229s0.221-0.484,0.713-1
							c0.495-0.525,1.261-1.106,2.292-1.328c0.256-0.048,0.523-0.092,0.791-0.119c0.266-0.021,0.536-0.025,0.799-0.014
							c0.091,0.004,0.182,0.01,0.274,0.016c-1.003-0.372-1.993-0.82-2.967-1.325c-0.118,0.185-0.29,0.429-0.526,0.688
							c-0.481,0.518-1.243,1.08-2.367,1.177c-1.112,0.08-2.361-0.353-3.276-0.861c-0.23-0.124-0.445-0.248-0.631-0.366
							c-0.188-0.123-0.35-0.24-0.483-0.338c-0.267-0.197-0.419-0.328-0.419-0.328s0.317-0.421,0.915-0.826
							c0.298-0.199,0.663-0.399,1.086-0.545c0.418-0.139,0.902-0.242,1.437-0.248c0.665,0.006,1.343,0.141,1.962,0.323
							c-0.938-0.6-1.841-1.273-2.703-1.993c-0.153,0.157-0.382,0.373-0.688,0.583c-0.588,0.404-1.449,0.787-2.564,0.628
							c-0.551-0.091-1.124-0.291-1.629-0.582c-0.256-0.146-0.505-0.304-0.742-0.464c-0.227-0.173-0.446-0.348-0.645-0.518
							c-0.398-0.341-0.709-0.688-0.931-0.934c-0.22-0.251-0.342-0.409-0.342-0.409s0.405-0.344,1.079-0.606
							c0.337-0.13,0.737-0.244,1.179-0.292c0.449-0.052,0.929-0.032,1.459,0.074c0.26,0.058,0.516,0.141,0.76,0.236
							c0.25,0.098,0.5,0.204,0.732,0.321c0.165,0.09,0.329,0.182,0.485,0.27c-0.825-0.831-1.596-1.716-2.303-2.641
							c-0.184,0.124-0.467,0.293-0.827,0.437c-0.332,0.133-0.728,0.242-1.177,0.272c-0.445,0.028-0.948-0.021-1.464-0.231
							c-0.262-0.1-0.518-0.229-0.768-0.385c-0.242-0.161-0.472-0.345-0.694-0.537c-0.45-0.385-0.814-0.842-1.136-1.261
							c-0.309-0.425-0.539-0.824-0.703-1.113c-0.082-0.146-0.135-0.268-0.176-0.351c-0.039-0.082-0.06-0.131-0.06-0.131
							s0.471-0.241,1.183-0.348c0.703-0.104,1.661-0.091,2.612,0.37c0.708,0.326,1.328,0.834,1.858,1.34
							c-0.654-1.042-1.236-2.11-1.738-3.196c-0.207,0.081-0.532,0.189-0.935,0.257c-0.704,0.108-1.658,0.09-2.589-0.536
							c-0.116-0.078-0.231-0.162-0.341-0.254c-0.107-0.093-0.213-0.192-0.314-0.296c-0.201-0.206-0.395-0.435-0.57-0.668
							c-0.166-0.241-0.318-0.491-0.46-0.741c-0.14-0.249-0.267-0.499-0.364-0.741c-0.203-0.481-0.36-0.918-0.445-1.238
							c-0.086-0.319-0.124-0.52-0.124-0.52s0.514-0.132,1.229-0.083c0.361,0.025,0.769,0.094,1.19,0.241
							c0.42,0.145,0.867,0.362,1.281,0.69c0.413,0.33,0.799,0.724,1.107,1.143c0.163,0.207,0.318,0.416,0.453,0.625
							c0.013,0.021,0.021,0.04,0.035,0.058c-0.437-1.212-0.787-2.426-1.043-3.614c-0.218,0.037-0.573,0.075-1,0.051
							c-0.721-0.04-1.624-0.276-2.414-1.085c-0.764-0.812-1.223-2.051-1.408-3.087c-0.108-0.512-0.14-0.975-0.159-1.305
							c-0.02-0.331-0.017-0.531-0.017-0.531s0.527-0.021,1.221,0.186c0.345,0.103,0.731,0.258,1.115,0.494
							c0.379,0.232,0.751,0.544,1.099,0.951c0.171,0.209,0.321,0.428,0.456,0.658c0.14,0.229,0.265,0.468,0.375,0.704
							c0.136,0.305,0.264,0.612,0.373,0.909c-0.153-1.161-0.227-2.279-0.238-3.349c-0.216-0.005-0.589-0.032-1.026-0.149
							c-0.347-0.092-0.734-0.24-1.109-0.485c-0.37-0.243-0.732-0.583-1.036-1.059c-0.296-0.476-0.495-1.04-0.617-1.616
							c-0.108-0.576-0.166-1.167-0.148-1.691c0.003-0.262,0.016-0.508,0.031-0.734c0.02-0.22,0.049-0.416,0.072-0.579
							c0.052-0.328,0.096-0.527,0.096-0.527s0.521,0.089,1.156,0.429c0.642,0.341,1.369,0.921,1.876,1.864
							c0.432,0.831,0.643,1.806,0.754,2.644c0.003-0.064,0.008-0.13,0.011-0.192c0.022-0.365,0.063-0.722,0.093-1.067
							c0.037-0.349,0.087-0.686,0.126-1.015c0.048-0.326,0.105-0.639,0.152-0.942c0.085-0.477,0.181-0.924,0.282-1.346
							c-0.021-0.053-0.063-0.176-0.11-0.354c-0.066-0.243-0.168-0.594-0.246-0.999c-0.065-0.424-0.167-0.834-0.206-1.352
							c-0.037-0.509-0.019-1.104,0.166-1.749c0.184-0.643,0.533-1.262,0.98-1.733c0.445-0.48,0.961-0.794,1.422-0.947
							c0.113-0.041,0.221-0.081,0.327-0.104c0.105-0.022,0.208-0.04,0.302-0.057c0.093-0.013,0.183-0.027,0.26-0.031
							c0.083,0,0.156-0.002,0.224-0.001c0.267,0.009,0.412,0.031,0.412,0.031s-0.057,0.148-0.153,0.38
							c-0.022,0.057-0.051,0.115-0.078,0.183c-0.023,0.067-0.051,0.142-0.077,0.223c-0.023,0.075-0.054,0.152-0.082,0.237
							c-0.03,0.078-0.048,0.174-0.073,0.264c-0.107,0.353-0.166,0.744-0.229,1.137c-0.064,0.393-0.128,0.807-0.262,1.28
							c-0.138,0.471-0.335,0.963-0.586,1.437c-0.248,0.465-0.56,0.936-0.863,1.236c-0.284,0.302-0.541,0.532-0.743,0.692
							c-0.12,0.499-0.231,1.043-0.329,1.625c-0.029,0.182-0.055,0.366-0.086,0.554c0.047-0.13,0.096-0.262,0.153-0.398
							c0.095-0.224,0.214-0.451,0.344-0.666c0.251-0.441,0.601-0.843,0.998-1.143c0.81-0.604,1.73-0.688,2.43-0.64
							c0.348,0.047,0.644,0.116,0.854,0.175c0.211,0.056,0.337,0.099,0.337,0.099c-0.014,0.041-0.167,0.563-0.464,1.187
							c-0.155,0.343-0.367,0.723-0.604,1.097c-0.257,0.369-0.544,0.735-0.913,1.045c-0.372,0.307-0.755,0.536-1.159,0.694
							c-0.396,0.164-0.791,0.262-1.145,0.316c-0.447,0.074-0.822,0.075-1.033,0.066c-0.018,0.199-0.034,0.404-0.045,0.609
							c-0.012,0.36-0.033,0.729-0.04,1.106c-0.01,0.53,0.005,1.074,0.029,1.634c0.131-0.791,0.442-1.663,0.994-2.293
							c0.686-0.755,1.548-1.024,2.258-1.115c0.701-0.092,1.229-0.016,1.229-0.016s-0.011,0.142-0.052,0.376
							c-0.029,0.229-0.081,0.555-0.177,0.922c-0.163,0.737-0.477,1.652-1.051,2.405c-0.15,0.189-0.312,0.358-0.482,0.513
							c-0.165,0.148-0.337,0.282-0.515,0.403c-0.355,0.238-0.725,0.413-1.059,0.538c-0.406,0.154-0.761,0.23-0.974,0.267
							c0.047,0.401,0.106,0.805,0.176,1.216c0.133,0.807,0.316,1.628,0.538,2.455c-0.01-0.278-0.005-0.566,0.035-0.859
							c0.034-0.253,0.071-0.505,0.15-0.749c0.077-0.245,0.171-0.48,0.289-0.703c0.234-0.439,0.576-0.777,0.917-1.031
							c0.342-0.256,0.705-0.426,1.036-0.549c0.664-0.244,1.195-0.285,1.195-0.285s0.003,0.037,0.012,0.102
							c0.005,0.063,0.02,0.156,0.03,0.274c0.022,0.233,0.024,0.567,0.03,0.942c-0.004,0.188-0.012,0.39-0.033,0.604
							c-0.016,0.209-0.032,0.426-0.071,0.646c-0.088,0.443-0.187,0.896-0.403,1.331c-0.403,0.86-1.096,1.48-1.687,1.866
							c-0.342,0.226-0.656,0.374-0.859,0.46c0.087,0.239,0.174,0.478,0.265,0.72c0.337,0.862,0.725,1.725,1.167,2.576
							c-0.053-0.228-0.102-0.46-0.123-0.701c-0.04-0.511-0.033-1.025,0.119-1.516c0.279-0.965,0.971-1.588,1.563-1.969
							c0.594-0.38,1.103-0.535,1.103-0.535s0.053,0.132,0.12,0.354c0.061,0.229,0.159,0.545,0.233,0.916
							c0.064,0.375,0.158,0.789,0.167,1.243c0.034,0.444,0.004,0.919-0.101,1.384c-0.099,0.463-0.288,0.886-0.514,1.253
							c-0.216,0.368-0.474,0.682-0.721,0.935c-0.269,0.28-0.531,0.487-0.711,0.616c0.12,0.191,0.244,0.384,0.37,0.573
							c0.508,0.759,1.064,1.502,1.656,2.214c-0.279-0.623-0.471-1.335-0.43-2.022c0.074-1.012,0.595-1.757,1.099-2.265
							c0.497-0.505,0.958-0.766,0.958-0.766s0.077,0.117,0.188,0.327c0.12,0.201,0.277,0.487,0.429,0.837
							c0.323,0.682,0.64,1.594,0.649,2.54c-0.002,0.241-0.024,0.472-0.065,0.696c-0.043,0.224-0.093,0.437-0.159,0.64
							c-0.134,0.407-0.316,0.769-0.504,1.073c-0.192,0.319-0.389,0.564-0.533,0.731c0.186,0.187,0.372,0.367,0.563,0.544
							c0.619,0.578,1.265,1.134,1.93,1.647c-0.084-0.113-0.162-0.238-0.239-0.361c-0.272-0.425-0.464-0.923-0.547-1.412
							c-0.155-1,0.195-1.854,0.564-2.448c0.378-0.603,0.768-0.959,0.768-0.959s0.099,0.101,0.262,0.271
							c0.163,0.169,0.367,0.426,0.603,0.724c0.232,0.294,0.466,0.66,0.687,1.044c0.107,0.195,0.203,0.408,0.291,0.624
							c0.088,0.213,0.162,0.437,0.216,0.672c0.099,0.471,0.116,0.923,0.075,1.351c-0.042,0.425-0.141,0.822-0.256,1.157
							c-0.111,0.334-0.24,0.609-0.342,0.802c0.251,0.156,0.504,0.311,0.761,0.459c0.672,0.39,1.357,0.752,2.048,1.085
							c-0.078-0.068-0.155-0.14-0.229-0.212c-0.349-0.378-0.65-0.811-0.84-1.271c-0.194-0.454-0.237-0.937-0.22-1.358
							c0.021-0.429,0.115-0.818,0.233-1.151c0.114-0.333,0.25-0.607,0.354-0.8c0.108-0.192,0.182-0.304,0.182-0.304
							s0.029,0.021,0.087,0.055c0.054,0.035,0.135,0.084,0.231,0.154c0.098,0.064,0.212,0.147,0.338,0.246
							c0.063,0.05,0.127,0.102,0.194,0.157c0.072,0.053,0.146,0.108,0.218,0.169c0.296,0.233,0.608,0.537,0.901,0.877
							c0.299,0.327,0.573,0.713,0.774,1.155c0.409,0.854,0.453,1.771,0.375,2.482c-0.038,0.333-0.1,0.616-0.155,0.825
							c0.253,0.092,0.509,0.18,0.763,0.26c0.736,0.237,1.476,0.438,2.21,0.607c-0.49-0.302-0.947-0.684-1.271-1.152
							c-0.564-0.851-0.614-1.752-0.533-2.452c0.084-0.706,0.286-1.195,0.286-1.195s0.133,0.056,0.351,0.133
							c0.22,0.085,0.522,0.212,0.854,0.396c0.673,0.341,1.485,0.861,2.074,1.604c0.146,0.189,0.271,0.391,0.376,0.596
							c0.108,0.196,0.194,0.395,0.268,0.597c0.146,0.399,0.228,0.795,0.267,1.152c0.039,0.311,0.041,0.587,0.034,0.799
							c0.119,0.018,0.235,0.031,0.354,0.045l0.161,0.021l0.073,0.009c0.003-0.001,0.006,0.003,0.005-0.001l0.021,0.004l0.039,0.002
							c0.109,0.006,0.215,0.016,0.322,0.021c0.213,0.021,0.425,0.032,0.639,0.048c0.105,0.009,0.209,0.015,0.312,0.022l0.158,0.011
							l0.019,0.002l0.035-0.002l0.082,0.005c0.204,0,0.408,0.005,0.614,0.005c0.409,0.006,0.804,0.011,1.184-0.008
							c0.097,0,0.193-0.005,0.285-0.01l0.069-0.003l0.011-0.001c0.002-0.001,0.005-0.002,0.005-0.002l0.037-0.005l0.146-0.016
							c0.094-0.011,0.189-0.021,0.286-0.033c0.103-0.005,0.199-0.017,0.299-0.023c1.149-0.092,2.215-0.052,3.192,0.043
							c0.801-0.571,1.707-1.14,2.745-1.634c0.091-0.045,0.183-0.083,0.271-0.129c0.092-0.039,0.179-0.077,0.268-0.115l0.134-0.06
							l0.035-0.015c-0.002,0.001,0,0,0.005-0.001l0.007-0.004l0.063-0.031c0.084-0.043,0.168-0.086,0.251-0.135
							c0.341-0.174,0.681-0.376,1.029-0.585c0.177-0.102,0.355-0.211,0.532-0.313l0.067-0.044l0.032-0.017l0.013-0.01l0.133-0.089
							c0.084-0.059,0.171-0.115,0.259-0.176c0.177-0.12,0.353-0.236,0.528-0.36c0.093-0.059,0.18-0.119,0.27-0.179l0.033-0.021
							l0.017-0.015c0,0.004,0,0,0.006-0.002l0.059-0.043l0.127-0.1c0.095-0.07,0.192-0.143,0.284-0.215
							c-0.111-0.181-0.249-0.421-0.37-0.71c-0.143-0.329-0.271-0.712-0.344-1.131c-0.038-0.212-0.063-0.427-0.069-0.65
							c-0.009-0.23-0.001-0.468,0.029-0.704c0.14-0.938,0.583-1.794,0.995-2.427c0.198-0.325,0.393-0.586,0.539-0.769
							c0.153-0.177,0.238-0.291,0.238-0.291s0.422,0.322,0.846,0.892c0.422,0.565,0.829,1.372,0.766,2.391
							c-0.045,0.567-0.252,1.127-0.526,1.633c0.554-0.513,1.096-1.058,1.611-1.631c0.182-0.197,0.359-0.4,0.533-0.606
							c-0.152-0.153-0.351-0.367-0.547-0.637c-0.426-0.577-0.846-1.394-0.915-2.338c-0.05-0.483-0.008-0.954,0.093-1.388
							c0.082-0.44,0.198-0.859,0.336-1.209c0.037-0.09,0.069-0.174,0.104-0.255c0.031-0.082,0.064-0.16,0.091-0.234
							c0.062-0.148,0.119-0.278,0.17-0.382c0.053-0.11,0.094-0.191,0.124-0.249c0.031-0.059,0.048-0.091,0.048-0.091
							s0.12,0.059,0.307,0.172c0.188,0.115,0.444,0.284,0.708,0.516c0.268,0.23,0.544,0.521,0.776,0.881
							c0.228,0.356,0.433,0.796,0.493,1.285c0.062,0.495,0.017,1.021-0.097,1.522c-0.026,0.099-0.057,0.199-0.09,0.298
							c0.434-0.635,0.844-1.291,1.231-1.964c0.149-0.258,0.29-0.518,0.431-0.778c-0.187-0.115-0.436-0.29-0.699-0.522
							c-0.269-0.232-0.552-0.527-0.801-0.875c-0.248-0.35-0.457-0.751-0.607-1.208c-0.072-0.229-0.119-0.461-0.148-0.689
							c-0.033-0.23-0.057-0.462-0.063-0.686c0-0.442,0.022-0.877,0.074-1.248c0.054-0.375,0.102-0.699,0.158-0.927
							c0.06-0.229,0.091-0.365,0.091-0.365s0.519,0.112,1.146,0.446c0.616,0.33,1.349,0.895,1.713,1.838
							c0.171,0.466,0.256,0.993,0.232,1.496c-0.005,0.146-0.016,0.294-0.028,0.434c0.318-0.777,0.602-1.581,0.848-2.392
							c0.075-0.249,0.148-0.499,0.216-0.753c-0.21-0.071-0.503-0.187-0.829-0.366c-0.312-0.171-0.651-0.394-0.973-0.678
							c-0.157-0.144-0.308-0.303-0.454-0.476c-0.148-0.174-0.286-0.362-0.404-0.57c-0.468-0.823-0.65-1.771-0.712-2.523
							c-0.043-0.378-0.049-0.705-0.047-0.939c-0.006-0.238,0.003-0.378,0.003-0.378s0.528-0.004,1.213,0.184
							c0.688,0.188,1.511,0.574,2.083,1.412c0.378,0.575,0.569,1.287,0.639,1.966c0.157-0.912,0.266-1.833,0.326-2.744
							c0.015-0.228,0.026-0.456,0.034-0.682c-0.223-0.021-0.547-0.07-0.925-0.179c-0.34-0.095-0.72-0.237-1.09-0.449
							c-0.377-0.205-0.753-0.477-1.074-0.827c-0.317-0.352-0.583-0.747-0.776-1.148c-0.216-0.398-0.346-0.803-0.476-1.16
							c-0.119-0.359-0.193-0.683-0.255-0.911c-0.054-0.226-0.073-0.366-0.073-0.366s0.517-0.12,1.223-0.088
							c0.699,0.035,1.612,0.229,2.337,0.924c0.379,0.347,0.641,0.79,0.859,1.253c0.104,0.22,0.175,0.446,0.243,0.669
							c-0.042-0.959-0.135-1.9-0.275-2.815c-0.042-0.254-0.086-0.504-0.133-0.755c-0.218,0.027-0.562,0.056-0.972,0.031
							c-0.705-0.039-1.617-0.229-2.391-0.774c-0.407-0.267-0.721-0.609-1.019-0.95c-0.144-0.172-0.27-0.351-0.388-0.522
							c-0.124-0.176-0.232-0.347-0.328-0.507c-0.179-0.329-0.35-0.618-0.443-0.832c-0.053-0.106-0.086-0.195-0.113-0.252
							c-0.025-0.061-0.04-0.094-0.04-0.094s0.48-0.23,1.176-0.351c0.349-0.059,0.749-0.094,1.173-0.043
							c0.424,0.049,0.885,0.172,1.309,0.435c0.215,0.134,0.415,0.29,0.606,0.464c0.185,0.174,0.349,0.371,0.5,0.574
							c0.185,0.232,0.33,0.481,0.462,0.727c-0.22-0.828-0.474-1.63-0.759-2.396c-0.146-0.391-0.299-0.77-0.456-1.141
							c-0.205,0.074-0.549,0.187-0.979,0.256c-0.351,0.059-0.758,0.092-1.185,0.063c-0.212-0.016-0.43-0.045-0.648-0.091
							c-0.223-0.05-0.451-0.113-0.675-0.203c-0.872-0.365-1.601-1.001-2.111-1.558c-0.267-0.271-0.477-0.525-0.614-0.71
							c-0.152-0.183-0.231-0.3-0.231-0.3s0.415-0.329,1.071-0.601c0.658-0.276,1.542-0.475,2.514-0.164
							c0.792,0.27,1.495,0.87,2.006,1.489c-0.258-0.497-0.519-0.975-0.791-1.43c-0.196-0.322-0.398-0.631-0.589-0.938
							c-0.109-0.172-0.225-0.342-0.341-0.505c-0.183,0.113-0.505,0.299-0.93,0.46c-0.335,0.129-0.727,0.242-1.151,0.298
							c-0.426,0.064-0.874,0.058-1.352-0.021c-0.473-0.084-0.904-0.258-1.311-0.449c-0.395-0.204-0.767-0.428-1.072-0.647
							c-0.57-0.392-0.963-0.767-0.996-0.795c0,0,0.089-0.101,0.242-0.254c0.153-0.156,0.375-0.364,0.654-0.579
							c0.578-0.391,1.417-0.777,2.423-0.661c0.493,0.063,0.995,0.235,1.436,0.491c0.221,0.121,0.438,0.259,0.631,0.405
							c0.118,0.09,0.226,0.179,0.333,0.268c-0.117-0.147-0.237-0.293-0.352-0.437c-0.377-0.454-0.744-0.87-1.099-1.242
							c-0.255-0.038-0.59-0.109-0.989-0.229c-0.415-0.108-0.921-0.359-1.366-0.639c-0.452-0.285-0.871-0.612-1.225-0.951
							c-0.354-0.343-0.618-0.67-0.868-0.978c-0.247-0.31-0.499-0.618-0.768-0.87c-0.064-0.065-0.128-0.14-0.193-0.192
							c-0.068-0.059-0.13-0.111-0.19-0.164c-0.065-0.057-0.124-0.107-0.177-0.154c-0.061-0.045-0.11-0.082-0.16-0.119
							c-0.2-0.151-0.321-0.253-0.321-0.253s0.113-0.092,0.342-0.232c0.054-0.034,0.119-0.069,0.193-0.111
							c0.069-0.035,0.153-0.066,0.239-0.102c0.089-0.033,0.186-0.069,0.291-0.104s0.214-0.051,0.335-0.073
							c0.475-0.098,1.079-0.084,1.704,0.109c0.623,0.185,1.236,0.546,1.717,1.011c0.479,0.467,0.793,0.974,1.017,1.433
							c0.228,0.467,0.344,0.873,0.496,1.273c0.139,0.389,0.226,0.744,0.287,0.988c0.048,0.178,0.074,0.306,0.082,0.362
							c0.299,0.314,0.606,0.653,0.918,1.023c0.196,0.239,0.4,0.481,0.601,0.741c0.201,0.265,0.412,0.531,0.619,0.814
							c0.199,0.285,0.413,0.573,0.616,0.878c0.032,0.053,0.068,0.106,0.103,0.161c-0.32-0.781-0.628-1.73-0.667-2.666
							c-0.033-1.071,0.307-1.937,0.691-2.552c0.38-0.612,0.786-0.95,0.786-0.95s0.14,0.15,0.346,0.409
							c0.103,0.13,0.227,0.285,0.354,0.465c0.125,0.188,0.259,0.396,0.394,0.62c0.276,0.446,0.523,0.986,0.718,1.539
							c0.183,0.561,0.292,1.148,0.275,1.708c-0.026,0.564-0.17,1.04-0.37,1.436c-0.202,0.399-0.466,0.723-0.72,0.975
							c-0.32,0.32-0.629,0.53-0.811,0.642c0.523,0.933,1.017,1.938,1.464,3.021c-0.054-0.313-0.095-0.643-0.129-0.976
							c-0.023-0.26-0.033-0.529-0.024-0.797c-0.002-0.267,0.021-0.531,0.063-0.798c0.097-0.526,0.265-0.982,0.478-1.373
							c0.214-0.397,0.47-0.725,0.717-0.986c0.496-0.524,0.964-0.771,0.964-0.771s0.104,0.172,0.251,0.469
							c0.148,0.296,0.352,0.713,0.518,1.209c0.355,0.99,0.577,2.293,0.321,3.378c-0.276,1.094-0.943,1.752-1.547,2.146
							c-0.357,0.234-0.687,0.38-0.892,0.456c0.372,1.157,0.677,2.384,0.904,3.65c0.003-0.021,0.001-0.042,0.001-0.066
							c0.014-0.248,0.042-0.507,0.079-0.768c0.058-0.517,0.194-1.051,0.388-1.543c0.193-0.491,0.474-0.903,0.766-1.238
							c0.29-0.339,0.612-0.603,0.909-0.804c0.595-0.4,1.105-0.544,1.105-0.544s0.064,0.193,0.149,0.514
							c0.091,0.318,0.172,0.775,0.237,1.294C71.52,36.408,71.531,36.689,71.537,36.974"/>
					</g>
				</g>
			</g>
		</g>
	</g>
	<g>
		<path fill="#CCC2C2" d="M38.936,29.983c-0.498,0.134-0.983,0.313-1.459,0.544c-0.473,0.227-0.929,0.478-1.367,0.756
			c-0.44,0.275-0.854,0.57-1.25,0.875c-0.395,0.309-0.751,0.599-1.067,0.873c-0.165,0.144-0.326,0.258-0.495,0.34
			c-0.165,0.077-0.323,0.14-0.473,0.18c-0.55,0.147-1.045,0.08-1.484-0.2c-0.434-0.279-0.718-0.664-0.848-1.149
			c-0.094-0.348-0.083-0.732,0.04-1.147c0.118-0.416,0.398-0.827,0.84-1.231c0.462-0.428,0.981-0.854,1.554-1.273
			c0.573-0.421,1.17-0.812,1.789-1.174c0.618-0.359,1.251-0.685,1.896-0.975c0.644-0.286,1.276-0.516,1.897-0.683
			c1.307-0.35,2.57-0.518,3.787-0.504c1.218,0.015,2.323,0.218,3.32,0.617c0.993,0.397,1.851,0.981,2.561,1.752
			c0.713,0.771,1.228,1.742,1.541,2.914c0.264,0.984,0.339,2.051,0.229,3.201s-0.361,2.342-0.745,3.571
			c-0.387,1.231-0.885,2.488-1.494,3.771c-0.61,1.282-1.278,2.544-2.009,3.79c-0.727,1.242-1.49,2.45-2.29,3.624
			c-0.796,1.174-1.577,2.276-2.342,3.307l11.707-3.137c0.323-0.087,0.622-0.107,0.895-0.058c0.275,0.051,0.518,0.148,0.73,0.291
			c0.212,0.147,0.392,0.329,0.536,0.55c0.146,0.222,0.254,0.46,0.323,0.719c0.064,0.241,0.089,0.495,0.073,0.761
			c-0.016,0.263-0.08,0.507-0.192,0.735c-0.114,0.223-0.275,0.427-0.489,0.606c-0.211,0.178-0.479,0.312-0.803,0.398l-15.208,4.075
			c-0.956,0.256-1.728,0.214-2.309-0.128c-0.586-0.343-0.963-0.84-1.136-1.487c-0.13-0.484-0.135-1.004-0.017-1.556
			c0.119-0.552,0.357-1.105,0.714-1.666c0.11-0.172,0.278-0.42,0.496-0.739c0.218-0.317,0.455-0.678,0.718-1.078
			c0.259-0.403,0.542-0.83,0.839-1.276c0.299-0.45,0.591-0.902,0.884-1.354c0.288-0.455,0.561-0.895,0.815-1.326
			c0.252-0.427,0.479-0.814,0.678-1.155c0.729-1.209,1.4-2.412,2.01-3.616c0.61-1.203,1.114-2.356,1.515-3.45
			c0.4-1.099,0.674-2.119,0.829-3.063c0.149-0.943,0.136-1.754-0.044-2.426c-0.163-0.607-0.44-1.104-0.824-1.493
			c-0.387-0.387-0.835-0.674-1.348-0.862c-0.511-0.188-1.073-0.283-1.682-0.288C40.17,29.735,39.558,29.816,38.936,29.983z"/>
	</g>
</g>
</svg>
