<?xml version="1.0" encoding="utf-8"?>
<!-- Generator: Adobe Illustrator 15.0.0, SVG Export Plug-In . SVG Version: 6.00 Build 0)  -->
<!DOCTYPE svg PUBLIC "-//W3C//DTD SVG 1.1//EN" "http://www.w3.org/Graphics/SVG/1.1/DTD/svg11.dtd">
<svg version="1.1" id="Layer_1" xmlns="http://www.w3.org/2000/svg" xmlns:xlink="http://www.w3.org/1999/xlink" x="0px" y="0px"
	 width="136.686px" height="208.494px" viewBox="0 0 136.686 208.494" enable-background="new 0 0 136.686 208.494"
	 xml:space="preserve">
<g opacity="0.15">
	<g>
		<path d="M124.125,0H12.56C5.632,0,0,5.632,0,12.559v183.372c0,6.928,5.632,12.563,12.56,12.563h111.565
			c6.923,0,12.561-5.636,12.561-12.563V12.559C136.685,5.632,131.048,0,124.125,0z M54.581,12.809h27.523
			c1.313,0,2.38,1.064,2.38,2.381c0,1.314-1.066,2.379-2.38,2.379H54.581c-1.314,0-2.379-1.064-2.379-2.379
			C52.201,13.874,53.266,12.809,54.581,12.809z M68.175,199.671c-3.59,0-6.5-2.91-6.5-6.5s2.91-6.5,6.5-6.5
			c3.591,0,6.5,2.91,6.5,6.5S71.766,199.671,68.175,199.671z M125.894,180.567c0,1.676-1.343,3.047-2.979,3.047H13.774
			c-1.64,0-2.98-1.371-2.98-3.047V28.192c0-1.677,1.343-3.047,2.98-3.047h109.139c1.639,0,2.98,1.371,2.98,3.047L125.894,180.567
			L125.894,180.567z"/>
	</g>
</g>
</svg>
