<?xml version="1.0" encoding="utf-8"?>
<!-- Generator: Adobe Illustrator 14.0.0, SVG Export Plug-In . SVG Version: 6.00 Build 43363)  -->
<!DOCTYPE svg PUBLIC "-//W3C//DTD SVG 1.1//EN" "http://www.w3.org/Graphics/SVG/1.1/DTD/svg11.dtd">
<svg version="1.1" id="Layer_1" xmlns="http://www.w3.org/2000/svg" xmlns:xlink="http://www.w3.org/1999/xlink" x="0px" y="0px"
	 width="50px" height="50px" viewBox="0 0 50 50" enable-background="new 0 0 50 50" xml:space="preserve">
<path fill="#FFFFFF" d="M48.438,18.75H31.25V1.563C31.25,0.7,30.55,0,29.688,0h-9.375C19.45,0,18.75,0.7,18.75,1.563V18.75H1.563
	C0.7,18.75,0,19.45,0,20.313v9.375c0,0.862,0.7,1.563,1.563,1.563H18.75v17.188c0,0.862,0.7,1.563,1.563,1.563h9.375
	c0.862,0,1.563-0.7,1.563-1.563V31.25h17.188c0.862,0,1.563-0.7,1.563-1.563v-9.375C50,19.45,49.3,18.75,48.438,18.75"/>
</svg>
